<svg width="412" height="744" viewBox="0 0 412 744" fill="none" xmlns="http://www.w3.org/2000/svg">
<circle cx="20.6993" cy="8.2796" r="2.06989" fill="#1B9B6A"/>
<circle cx="20.6993" cy="23.8038" r="2.06989" fill="#1B9B6A"/>
<circle cx="20.6993" cy="40.3629" r="2.06989" fill="#1B9B6A"/>
<circle cx="21.2168" cy="56.4045" r="2.58736" fill="#1B9B6A"/>
<circle cx="21.2168" cy="71.9287" r="2.58736" fill="#1B9B6A"/>
<circle cx="21.2168" cy="88.4877" r="2.58736" fill="#1B9B6A"/>
<circle cx="20.6991" cy="104.529" r="3.10483" fill="#1B9B6A"/>
<circle cx="20.6991" cy="121.088" r="3.10483" fill="#1B9B6A"/>
<circle cx="20.6991" cy="137.648" r="3.10483" fill="#1B9B6A"/>
<circle cx="20.6991" cy="153.172" r="3.10483" fill="#1B9B6A"/>
<circle cx="20.6991" cy="168.696" r="3.10483" fill="#1B9B6A"/>
<circle cx="20.6991" cy="185.255" r="3.10483" fill="#1B9B6A"/>
<circle cx="20.6991" cy="201.814" r="3.10483" fill="#1B9B6A"/>
<circle cx="20.6991" cy="217.338" r="3.10483" fill="#1B9B6A"/>
<circle cx="20.6991" cy="233.897" r="3.10483" fill="#1B9B6A"/>
<circle cx="20.6991" cy="249.421" r="3.10483" fill="#1B9B6A"/>
<circle cx="20.6991" cy="264.946" r="3.10483" fill="#1B9B6A"/>
<circle cx="20.6991" cy="281.505" r="3.10483" fill="#1B9B6A"/>
<circle cx="20.6991" cy="298.064" r="3.10483" fill="#1B9B6A"/>
<circle cx="20.6991" cy="313.588" r="3.10483" fill="#1B9B6A"/>
<circle cx="20.6991" cy="330.147" r="3.10483" fill="#1B9B6A"/>
<circle cx="21.2168" cy="362.748" r="2.58736" fill="#1B9B6A"/>
<circle cx="21.2168" cy="378.272" r="2.58736" fill="#1B9B6A"/>
<circle cx="21.2168" cy="394.831" r="2.58736" fill="#1B9B6A"/>
<circle cx="20.6993" cy="411.908" r="2.06989" fill="#1B9B6A"/>
<circle cx="20.6993" cy="426.397" r="2.06989" fill="#1B9B6A"/>
<circle cx="20.6993" cy="442.956" r="2.06989" fill="#1B9B6A"/>
<circle cx="20.6993" cy="459.515" r="2.06989" fill="#1B9B6A"/>
<circle cx="21.2165" cy="491.081" r="1.55242" fill="#1B9B6A"/>
<circle cx="20.699" cy="507.123" r="1.03494" fill="#1B9B6A"/>
<circle cx="20.699" cy="523.682" r="1.03494" fill="#1B9B6A"/>
<circle cx="56.9219" cy="12.4193" r="2.06989" fill="#1F8479"/>
<circle cx="56.9219" cy="27.9434" r="2.06989" fill="#1F8479"/>
<circle cx="56.9219" cy="44.5025" r="2.06989" fill="#1F8479"/>
<circle cx="57.4394" cy="60.5441" r="2.58736" fill="#1F8479"/>
<circle cx="57.4394" cy="76.0683" r="2.58736" fill="#1F8479"/>
<circle cx="57.4394" cy="92.6274" r="2.58736" fill="#1F8479"/>
<circle cx="56.9222" cy="108.669" r="3.10483" fill="#1F8479"/>
<circle cx="56.9222" cy="125.228" r="3.10483" fill="#1F8479"/>
<circle cx="56.9222" cy="141.787" r="3.10483" fill="#1F8479"/>
<circle cx="56.9222" cy="157.311" r="3.10483" fill="#1F8479"/>
<circle cx="56.9222" cy="172.836" r="3.10483" fill="#1F8479"/>
<circle cx="56.9222" cy="189.395" r="3.10483" fill="#1F8479"/>
<circle cx="56.9222" cy="205.954" r="3.10483" fill="#1F8479"/>
<circle cx="56.9222" cy="221.478" r="3.10483" fill="#1F8479"/>
<circle cx="56.9222" cy="238.037" r="3.10483" fill="#1F8479"/>
<circle cx="56.9222" cy="253.561" r="3.10483" fill="#1F8479"/>
<circle cx="56.9222" cy="269.085" r="3.10483" fill="#1F8479"/>
<circle cx="56.9222" cy="285.645" r="3.10483" fill="#1F8479"/>
<circle cx="56.9222" cy="302.203" r="3.10483" fill="#1F8479"/>
<circle cx="56.9222" cy="317.728" r="3.10483" fill="#1F8479"/>
<circle cx="56.9222" cy="334.287" r="3.10483" fill="#1F8479"/>
<circle cx="57.4394" cy="366.888" r="2.58736" fill="#1F8479"/>
<circle cx="57.4394" cy="382.412" r="2.58736" fill="#1F8479"/>
<circle cx="57.4394" cy="398.971" r="2.58736" fill="#1F8479"/>
<circle cx="56.9219" cy="416.047" r="2.06989" fill="#1F8479"/>
<circle cx="56.9219" cy="430.537" r="2.06989" fill="#1F8479"/>
<circle cx="56.9219" cy="447.096" r="2.06989" fill="#1F8479"/>
<circle cx="56.9219" cy="463.655" r="2.06989" fill="#1F8479"/>
<circle cx="57.4396" cy="495.221" r="1.55242" fill="#1F8479"/>
<circle cx="56.9221" cy="511.262" r="1.03494" fill="#1F8479"/>
<circle cx="56.9221" cy="527.821" r="1.03494" fill="#1F8479"/>
<circle cx="3.62252" cy="6.72701" r="2.58736" fill="#1B9B6A"/>
<circle cx="3.62252" cy="23.2861" r="2.58736" fill="#1B9B6A"/>
<circle cx="3.62252" cy="474.522" r="2.58736" fill="#1B9B6A"/>
<circle cx="3.62252" cy="491.081" r="2.58736" fill="#1B9B6A"/>
<circle cx="4.13971" cy="522.647" r="2.06989" fill="#1B9B6A"/>
<circle cx="4.13971" cy="539.206" r="2.06989" fill="#1B9B6A"/>
<circle cx="3.62224" cy="570.772" r="1.55242" fill="#1B9B6A"/>
<circle cx="3.62224" cy="587.331" r="1.55242" fill="#1B9B6A"/>
<circle cx="4.13992" cy="618.897" r="1.03494" fill="#1B9B6A"/>
<circle cx="3.62245" cy="635.973" r="0.517472" fill="#1B9B6A"/>
<circle cx="4.13999" cy="39.3277" r="3.10483" fill="#1B9B6A"/>
<circle cx="4.13999" cy="55.8868" r="3.10483" fill="#1B9B6A"/>
<circle cx="4.13999" cy="71.411" r="3.10483" fill="#1B9B6A"/>
<circle cx="4.13999" cy="87.9701" r="3.10483" fill="#1B9B6A"/>
<circle cx="4.13999" cy="103.494" r="3.10483" fill="#1B9B6A"/>
<circle cx="4.13999" cy="120.053" r="3.10483" fill="#1B9B6A"/>
<circle cx="4.13999" cy="135.577" r="3.10483" fill="#1B9B6A"/>
<circle cx="4.13999" cy="345.671" r="3.10483" fill="#1B9B6A"/>
<circle cx="4.13999" cy="361.195" r="3.10483" fill="#1B9B6A"/>
<circle cx="4.13999" cy="377.755" r="3.10483" fill="#1B9B6A"/>
<circle cx="4.13999" cy="393.279" r="3.10483" fill="#1B9B6A"/>
<circle cx="4.13999" cy="409.838" r="3.10483" fill="#1B9B6A"/>
<circle cx="4.13999" cy="425.362" r="3.10483" fill="#1B9B6A"/>
<circle cx="4.13999" cy="441.921" r="3.10483" fill="#1B9B6A"/>
<circle cx="4.13999" cy="457.445" r="3.10483" fill="#1B9B6A"/>
<circle cx="3.6223" cy="152.654" r="3.6223" fill="#1B9B6A"/>
<circle cx="3.6223" cy="168.178" r="3.6223" fill="#1B9B6A"/>
<circle cx="3.6223" cy="184.737" r="3.6223" fill="#1B9B6A"/>
<circle cx="3.6223" cy="200.262" r="3.6223" fill="#1B9B6A"/>
<circle cx="3.6223" cy="216.821" r="3.6223" fill="#1B9B6A"/>
<circle cx="3.6223" cy="232.345" r="3.6223" fill="#1B9B6A"/>
<circle cx="3.6223" cy="248.904" r="3.6223" fill="#1B9B6A"/>
<circle cx="3.6223" cy="264.428" r="3.6223" fill="#1B9B6A"/>
<circle cx="3.6223" cy="282.022" r="3.6223" fill="#1B9B6A"/>
<circle cx="3.6223" cy="297.546" r="3.6223" fill="#1B9B6A"/>
<circle cx="3.6223" cy="314.105" r="3.6223" fill="#1B9B6A"/>
<circle cx="3.6223" cy="329.63" r="3.6223" fill="#1B9B6A"/>
<circle cx="39.8452" cy="9.83199" r="2.58736" fill="#1D8F72"/>
<circle cx="39.8452" cy="26.3911" r="2.58736" fill="#1D8F72"/>
<circle cx="39.8452" cy="477.627" r="2.58736" fill="#1D8F72"/>
<circle cx="39.8452" cy="494.186" r="2.58736" fill="#1D8F72"/>
<circle cx="40.3629" cy="525.752" r="2.06989" fill="#1D8F72"/>
<circle cx="40.3629" cy="542.311" r="2.06989" fill="#1D8F72"/>
<circle cx="39.8454" cy="573.877" r="1.55242" fill="#1D8F72"/>
<circle cx="39.8454" cy="590.436" r="1.55242" fill="#1D8F72"/>
<circle cx="40.3631" cy="622.001" r="1.03494" fill="#1D8F72"/>
<circle cx="39.8456" cy="639.078" r="0.517472" fill="#1D8F72"/>
<circle cx="40.3626" cy="42.4327" r="3.10483" fill="#1D8F72"/>
<circle cx="40.3626" cy="58.9918" r="3.10483" fill="#1D8F72"/>
<circle cx="40.3626" cy="74.516" r="3.10483" fill="#1D8F72"/>
<circle cx="40.3626" cy="91.0751" r="3.10483" fill="#1D8F72"/>
<circle cx="40.3626" cy="106.599" r="3.10483" fill="#1D8F72"/>
<circle cx="40.3626" cy="123.158" r="3.10483" fill="#1D8F72"/>
<circle cx="40.3626" cy="138.682" r="3.10483" fill="#1D8F72"/>
<circle cx="40.3626" cy="348.776" r="3.10483" fill="#1D8F72"/>
<circle cx="40.3626" cy="364.3" r="3.10483" fill="#1D8F72"/>
<circle cx="40.3626" cy="380.859" r="3.10483" fill="#1D8F72"/>
<circle cx="40.3626" cy="396.383" r="3.10483" fill="#1D8F72"/>
<circle cx="40.3626" cy="412.943" r="3.10483" fill="#1D8F72"/>
<circle cx="40.3626" cy="428.467" r="3.10483" fill="#1D8F72"/>
<circle cx="40.3626" cy="445.026" r="3.10483" fill="#1D8F72"/>
<circle cx="40.3626" cy="460.55" r="3.10483" fill="#1D8F72"/>
<circle cx="39.8454" cy="155.759" r="3.6223" fill="#1D8F72"/>
<circle cx="39.8454" cy="171.283" r="3.6223" fill="#1D8F72"/>
<circle cx="39.8454" cy="187.842" r="3.6223" fill="#1D8F72"/>
<circle cx="39.8454" cy="203.366" r="3.6223" fill="#1D8F72"/>
<circle cx="39.8454" cy="219.926" r="3.6223" fill="#1D8F72"/>
<circle cx="39.8454" cy="235.45" r="3.6223" fill="#1D8F72"/>
<circle cx="39.8454" cy="252.009" r="3.6223" fill="#1D8F72"/>
<circle cx="39.8454" cy="267.533" r="3.6223" fill="#1D8F72"/>
<circle cx="39.8454" cy="285.127" r="3.6223" fill="#1D8F72"/>
<circle cx="39.8454" cy="300.651" r="3.6223" fill="#1D8F72"/>
<circle cx="39.8454" cy="317.21" r="3.6223" fill="#1D8F72"/>
<circle cx="39.8454" cy="332.734" r="3.6223" fill="#1D8F72"/>
<circle cx="91.0748" cy="2.06989" r="2.06989" fill="#226E87"/>
<circle cx="91.0748" cy="17.5943" r="2.06989" fill="#226E87"/>
<circle cx="91.0748" cy="34.1531" r="2.06989" fill="#226E87"/>
<circle cx="91.5922" cy="50.1948" r="2.58736" fill="#226E87"/>
<circle cx="91.5922" cy="65.7189" r="2.58736" fill="#226E87"/>
<circle cx="91.5922" cy="82.2783" r="2.58736" fill="#226E87"/>
<circle cx="91.0751" cy="98.3197" r="3.10483" fill="#226E87"/>
<circle cx="91.0751" cy="114.879" r="3.10483" fill="#226E87"/>
<circle cx="91.0751" cy="131.438" r="3.10483" fill="#226E87"/>
<circle cx="91.0751" cy="146.962" r="3.10483" fill="#226E87"/>
<circle cx="91.0751" cy="162.486" r="3.10483" fill="#226E87"/>
<circle cx="91.0751" cy="179.045" r="3.10483" fill="#226E87"/>
<circle cx="91.0751" cy="195.604" r="3.10483" fill="#226E87"/>
<circle cx="91.0751" cy="211.129" r="3.10483" fill="#226E87"/>
<circle cx="91.0751" cy="227.688" r="3.10483" fill="#226E87"/>
<circle cx="91.0751" cy="243.212" r="3.10483" fill="#226E87"/>
<circle cx="91.0751" cy="258.736" r="3.10483" fill="#226E87"/>
<circle cx="91.0751" cy="275.295" r="3.10483" fill="#226E87"/>
<circle cx="91.0751" cy="291.854" r="3.10483" fill="#226E87"/>
<circle cx="91.0751" cy="307.379" r="3.10483" fill="#226E87"/>
<circle cx="91.0751" cy="323.937" r="3.10483" fill="#226E87"/>
<circle cx="91.5922" cy="356.538" r="2.58736" fill="#226E87"/>
<circle cx="91.5922" cy="372.062" r="2.58736" fill="#226E87"/>
<circle cx="91.5922" cy="388.622" r="2.58736" fill="#226E87"/>
<circle cx="91.0748" cy="405.698" r="2.06989" fill="#226E87"/>
<circle cx="91.0748" cy="420.187" r="2.06989" fill="#226E87"/>
<circle cx="91.0748" cy="436.746" r="2.06989" fill="#226E87"/>
<circle cx="91.0748" cy="453.305" r="2.06989" fill="#226E87"/>
<circle cx="91.5925" cy="484.871" r="1.55242" fill="#226E87"/>
<circle cx="91.075" cy="500.913" r="1.03494" fill="#226E87"/>
<circle cx="91.075" cy="517.472" r="1.03494" fill="#226E87"/>
<circle cx="127.298" cy="38.2928" r="2.06989" fill="#255D92"/>
<circle cx="127.298" cy="53.817" r="2.06989" fill="#255D92"/>
<circle cx="127.298" cy="70.376" r="2.06989" fill="#255D92"/>
<circle cx="127.815" cy="86.4177" r="2.58736" fill="#255D92"/>
<circle cx="127.815" cy="101.942" r="2.58736" fill="#255D92"/>
<circle cx="127.815" cy="118.501" r="2.58736" fill="#255D92"/>
<circle cx="127.298" cy="134.543" r="3.10483" fill="#255D92"/>
<circle cx="127.298" cy="151.102" r="3.10483" fill="#255D92"/>
<circle cx="127.298" cy="167.661" r="3.10483" fill="#255D92"/>
<circle cx="127.298" cy="183.185" r="3.10483" fill="#255D92"/>
<circle cx="127.298" cy="198.709" r="3.10483" fill="#255D92"/>
<circle cx="127.298" cy="215.268" r="3.10483" fill="#255D92"/>
<circle cx="127.298" cy="231.827" r="3.10483" fill="#255D92"/>
<circle cx="127.298" cy="247.351" r="3.10483" fill="#255D92"/>
<circle cx="127.298" cy="263.91" r="3.10483" fill="#255D92"/>
<circle cx="127.298" cy="279.435" r="3.10483" fill="#255D92"/>
<circle cx="127.298" cy="294.959" r="3.10483" fill="#255D92"/>
<circle cx="127.298" cy="311.518" r="3.10483" fill="#255D92"/>
<circle cx="127.298" cy="328.077" r="3.10483" fill="#255D92"/>
<circle cx="127.298" cy="343.601" r="3.10483" fill="#255D92"/>
<circle cx="127.298" cy="360.16" r="3.10483" fill="#255D92"/>
<circle cx="127.815" cy="392.761" r="2.58736" fill="#255D92"/>
<circle cx="127.815" cy="408.285" r="2.58736" fill="#255D92"/>
<circle cx="127.815" cy="424.844" r="2.58736" fill="#255D92"/>
<circle cx="127.298" cy="441.921" r="2.06989" fill="#255D92"/>
<circle cx="127.298" cy="456.41" r="2.06989" fill="#255D92"/>
<circle cx="127.298" cy="472.969" r="2.06989" fill="#255D92"/>
<circle cx="127.298" cy="489.529" r="2.06989" fill="#255D92"/>
<circle cx="127.816" cy="521.094" r="1.55242" fill="#255D92"/>
<circle cx="127.298" cy="537.136" r="1.03494" fill="#255D92"/>
<circle cx="127.298" cy="553.695" r="1.03494" fill="#255D92"/>
<circle cx="73.9985" cy="23.2861" r="2.58736" fill="#217880"/>
<circle cx="73.9985" cy="39.8452" r="2.58736" fill="#217880"/>
<circle cx="73.9985" cy="491.081" r="2.58736" fill="#217880"/>
<circle cx="73.9985" cy="507.64" r="2.58736" fill="#217880"/>
<circle cx="74.5157" cy="539.206" r="2.06989" fill="#217880"/>
<circle cx="74.5157" cy="555.765" r="2.06989" fill="#217880"/>
<circle cx="73.9982" cy="587.331" r="1.55242" fill="#217880"/>
<circle cx="73.9982" cy="603.89" r="1.55242" fill="#217880"/>
<circle cx="74.5159" cy="635.455" r="1.03494" fill="#217880"/>
<circle cx="73.9984" cy="652.532" r="0.517472" fill="#217880"/>
<circle cx="74.516" cy="55.8868" r="3.10483" fill="#217880"/>
<circle cx="74.516" cy="72.4459" r="3.10483" fill="#217880"/>
<circle cx="74.516" cy="87.9698" r="3.10483" fill="#217880"/>
<circle cx="74.516" cy="104.529" r="3.10483" fill="#217880"/>
<circle cx="74.516" cy="120.053" r="3.10483" fill="#217880"/>
<circle cx="74.516" cy="136.612" r="3.10483" fill="#217880"/>
<circle cx="74.516" cy="152.137" r="3.10483" fill="#217880"/>
<circle cx="74.516" cy="362.23" r="3.10483" fill="#217880"/>
<circle cx="74.516" cy="377.754" r="3.10483" fill="#217880"/>
<circle cx="74.516" cy="394.313" r="3.10483" fill="#217880"/>
<circle cx="74.516" cy="409.837" r="3.10483" fill="#217880"/>
<circle cx="74.516" cy="426.397" r="3.10483" fill="#217880"/>
<circle cx="74.516" cy="441.921" r="3.10483" fill="#217880"/>
<circle cx="74.516" cy="458.48" r="3.10483" fill="#217880"/>
<circle cx="74.516" cy="474.004" r="3.10483" fill="#217880"/>
<circle cx="73.9988" cy="169.213" r="3.6223" fill="#217880"/>
<circle cx="73.9988" cy="184.737" r="3.6223" fill="#217880"/>
<circle cx="73.9988" cy="201.296" r="3.6223" fill="#217880"/>
<circle cx="73.9988" cy="216.821" r="3.6223" fill="#217880"/>
<circle cx="73.9988" cy="233.38" r="3.6223" fill="#217880"/>
<circle cx="73.9988" cy="248.904" r="3.6223" fill="#217880"/>
<circle cx="73.9988" cy="265.463" r="3.6223" fill="#217880"/>
<circle cx="73.9988" cy="280.987" r="3.6223" fill="#217880"/>
<circle cx="73.9988" cy="298.581" r="3.6223" fill="#217880"/>
<circle cx="73.9988" cy="314.105" r="3.6223" fill="#217880"/>
<circle cx="73.9988" cy="330.665" r="3.6223" fill="#217880"/>
<circle cx="73.9988" cy="346.188" r="3.6223" fill="#217880"/>
<circle cx="110.222" cy="9.83199" r="2.58736" fill="#24658D"/>
<circle cx="110.222" cy="26.3911" r="2.58736" fill="#24658D"/>
<circle cx="110.222" cy="477.627" r="2.58736" fill="#24658D"/>
<circle cx="110.222" cy="494.186" r="2.58736" fill="#24658D"/>
<circle cx="110.739" cy="525.752" r="2.06989" fill="#24658D"/>
<circle cx="110.739" cy="542.311" r="2.06989" fill="#24658D"/>
<circle cx="110.221" cy="573.877" r="1.55242" fill="#24658D"/>
<circle cx="110.221" cy="590.436" r="1.55242" fill="#24658D"/>
<circle cx="110.739" cy="622.001" r="1.03494" fill="#24658D"/>
<circle cx="110.222" cy="639.078" r="0.517472" fill="#24658D"/>
<circle cx="110.739" cy="42.4327" r="3.10483" fill="#24658D"/>
<circle cx="110.739" cy="58.9918" r="3.10483" fill="#24658D"/>
<circle cx="110.739" cy="74.516" r="3.10483" fill="#24658D"/>
<circle cx="110.739" cy="91.0751" r="3.10483" fill="#24658D"/>
<circle cx="110.739" cy="106.599" r="3.10483" fill="#24658D"/>
<circle cx="110.739" cy="123.158" r="3.10483" fill="#24658D"/>
<circle cx="110.739" cy="138.682" r="3.10483" fill="#24658D"/>
<circle cx="110.739" cy="348.776" r="3.10483" fill="#24658D"/>
<circle cx="110.739" cy="364.3" r="3.10483" fill="#24658D"/>
<circle cx="110.739" cy="380.859" r="3.10483" fill="#24658D"/>
<circle cx="110.739" cy="396.383" r="3.10483" fill="#24658D"/>
<circle cx="110.739" cy="412.943" r="3.10483" fill="#24658D"/>
<circle cx="110.739" cy="428.467" r="3.10483" fill="#24658D"/>
<circle cx="110.739" cy="445.026" r="3.10483" fill="#24658D"/>
<circle cx="110.739" cy="460.55" r="3.10483" fill="#24658D"/>
<circle cx="110.221" cy="155.759" r="3.6223" fill="#24658D"/>
<circle cx="110.221" cy="171.283" r="3.6223" fill="#24658D"/>
<circle cx="110.221" cy="187.842" r="3.6223" fill="#24658D"/>
<circle cx="110.221" cy="203.366" r="3.6223" fill="#24658D"/>
<circle cx="110.221" cy="219.926" r="3.6223" fill="#24658D"/>
<circle cx="110.221" cy="235.45" r="3.6223" fill="#24658D"/>
<circle cx="110.221" cy="252.009" r="3.6223" fill="#24658D"/>
<circle cx="110.221" cy="267.533" r="3.6223" fill="#24658D"/>
<circle cx="110.221" cy="285.127" r="3.6223" fill="#24658D"/>
<circle cx="110.221" cy="300.651" r="3.6223" fill="#24658D"/>
<circle cx="110.221" cy="317.21" r="3.6223" fill="#24658D"/>
<circle cx="110.221" cy="332.734" r="3.6223" fill="#24658D"/>
<circle cx="302.203" cy="8.2796" r="2.06989" fill="#1C2F6F"/>
<circle cx="302.203" cy="23.8038" r="2.06989" fill="#1C2F6F"/>
<circle cx="302.203" cy="40.3629" r="2.06989" fill="#1C2F6F"/>
<circle cx="302.721" cy="56.4045" r="2.58736" fill="#1C2F6F"/>
<circle cx="302.721" cy="71.9287" r="2.58736" fill="#1C2F6F"/>
<circle cx="302.721" cy="88.4877" r="2.58736" fill="#1C2F6F"/>
<circle cx="302.203" cy="104.529" r="3.10483" fill="#1C2F6F"/>
<circle cx="302.203" cy="121.088" r="3.10483" fill="#1C2F6F"/>
<circle cx="302.203" cy="137.648" r="3.10483" fill="#1C2F6F"/>
<circle cx="302.203" cy="153.172" r="3.10483" fill="#1C2F6F"/>
<circle cx="302.203" cy="168.696" r="3.10483" fill="#1C2F6F"/>
<circle cx="302.203" cy="185.255" r="3.10483" fill="#1C2F6F"/>
<circle cx="302.203" cy="201.814" r="3.10483" fill="#1C2F6F"/>
<circle cx="302.203" cy="217.338" r="3.10483" fill="#1C2F6F"/>
<circle cx="302.203" cy="233.897" r="3.10483" fill="#1C2F6F"/>
<circle cx="302.203" cy="249.421" r="3.10483" fill="#1C2F6F"/>
<circle cx="302.203" cy="264.946" r="3.10483" fill="#1C2F6F"/>
<circle cx="302.203" cy="281.505" r="3.10483" fill="#1C2F6F"/>
<circle cx="302.203" cy="298.064" r="3.10483" fill="#1C2F6F"/>
<circle cx="302.203" cy="313.588" r="3.10483" fill="#1C2F6F"/>
<circle cx="302.203" cy="330.147" r="3.10483" fill="#1C2F6F"/>
<circle cx="302.721" cy="362.748" r="2.58736" fill="#1C2F6F"/>
<circle cx="302.721" cy="378.272" r="2.58736" fill="#1C2F6F"/>
<circle cx="302.721" cy="394.831" r="2.58736" fill="#1C2F6F"/>
<circle cx="302.203" cy="411.908" r="2.06989" fill="#1C2F6F"/>
<circle cx="302.203" cy="426.397" r="2.06989" fill="#1C2F6F"/>
<circle cx="302.203" cy="442.956" r="2.06989" fill="#1C2F6F"/>
<circle cx="302.203" cy="459.515" r="2.06989" fill="#1C2F6F"/>
<circle cx="302.721" cy="491.081" r="1.55242" fill="#1C2F6F"/>
<circle cx="302.203" cy="507.123" r="1.03494" fill="#1C2F6F"/>
<circle cx="302.203" cy="523.682" r="1.03494" fill="#1C2F6F"/>
<circle cx="338.427" cy="12.4193" r="2.06989" fill="#17275C"/>
<circle cx="338.427" cy="27.9434" r="2.06989" fill="#17275C"/>
<circle cx="338.427" cy="44.5025" r="2.06989" fill="#17275C"/>
<circle cx="338.945" cy="60.5441" r="2.58736" fill="#17275C"/>
<circle cx="338.945" cy="76.0683" r="2.58736" fill="#17275C"/>
<circle cx="338.945" cy="92.6274" r="2.58736" fill="#17275C"/>
<circle cx="338.427" cy="108.669" r="3.10483" fill="#17275C"/>
<circle cx="338.427" cy="125.228" r="3.10483" fill="#17275C"/>
<circle cx="338.427" cy="141.787" r="3.10483" fill="#17275C"/>
<circle cx="338.427" cy="157.311" r="3.10483" fill="#17275C"/>
<circle cx="338.427" cy="172.836" r="3.10483" fill="#17275C"/>
<circle cx="338.427" cy="189.395" r="3.10483" fill="#17275C"/>
<circle cx="338.427" cy="205.954" r="3.10483" fill="#17275C"/>
<circle cx="338.427" cy="221.478" r="3.10483" fill="#17275C"/>
<circle cx="338.427" cy="238.037" r="3.10483" fill="#17275C"/>
<circle cx="338.427" cy="253.561" r="3.10483" fill="#17275C"/>
<circle cx="338.427" cy="269.085" r="3.10483" fill="#17275C"/>
<circle cx="338.427" cy="285.645" r="3.10483" fill="#17275C"/>
<circle cx="338.427" cy="302.203" r="3.10483" fill="#17275C"/>
<circle cx="338.427" cy="317.728" r="3.10483" fill="#17275C"/>
<circle cx="338.427" cy="334.287" r="3.10483" fill="#17275C"/>
<circle cx="338.945" cy="366.888" r="2.58736" fill="#17275C"/>
<circle cx="338.945" cy="382.412" r="2.58736" fill="#17275C"/>
<circle cx="338.945" cy="398.971" r="2.58736" fill="#17275C"/>
<circle cx="338.427" cy="416.047" r="2.06989" fill="#17275C"/>
<circle cx="338.427" cy="430.537" r="2.06989" fill="#17275C"/>
<circle cx="338.427" cy="447.096" r="2.06989" fill="#17275C"/>
<circle cx="338.427" cy="463.655" r="2.06989" fill="#17275C"/>
<circle cx="338.945" cy="495.221" r="1.55242" fill="#17275C"/>
<circle cx="338.427" cy="511.262" r="1.03494" fill="#17275C"/>
<circle cx="338.427" cy="527.821" r="1.03494" fill="#17275C"/>
<circle cx="285.127" cy="474.522" r="2.58736" fill="#1E3378"/>
<circle cx="285.127" cy="491.081" r="2.58736" fill="#1E3378"/>
<circle cx="285.645" cy="522.647" r="2.06989" fill="#1E3378"/>
<circle cx="285.644" cy="135.577" r="3.10483" fill="#1E3378"/>
<circle cx="285.644" cy="345.671" r="3.10483" fill="#1E3378"/>
<circle cx="285.644" cy="361.196" r="3.10483" fill="#1E3378"/>
<circle cx="285.644" cy="377.755" r="3.10483" fill="#1E3378"/>
<circle cx="285.644" cy="393.279" r="3.10483" fill="#1E3378"/>
<circle cx="285.644" cy="409.838" r="3.10483" fill="#1E3378"/>
<circle cx="285.644" cy="425.362" r="3.10483" fill="#1E3378"/>
<circle cx="285.644" cy="441.921" r="3.10483" fill="#1E3378"/>
<circle cx="285.644" cy="457.445" r="3.10483" fill="#1E3378"/>
<circle cx="285.127" cy="152.654" r="3.6223" fill="#1E3378"/>
<circle cx="285.127" cy="168.178" r="3.6223" fill="#1E3378"/>
<circle cx="285.127" cy="184.738" r="3.6223" fill="#1E3378"/>
<circle cx="285.127" cy="200.262" r="3.6223" fill="#1E3378"/>
<circle cx="285.127" cy="216.821" r="3.6223" fill="#1E3378"/>
<circle cx="285.127" cy="232.345" r="3.6223" fill="#1E3378"/>
<circle cx="285.127" cy="248.904" r="3.6223" fill="#1E3378"/>
<circle cx="285.127" cy="264.428" r="3.6223" fill="#1E3378"/>
<circle cx="285.127" cy="282.022" r="3.6223" fill="#1E3378"/>
<circle cx="285.127" cy="297.546" r="3.6223" fill="#1E3378"/>
<circle cx="285.127" cy="314.106" r="3.6223" fill="#1E3378"/>
<circle cx="285.127" cy="329.63" r="3.6223" fill="#1E3378"/>
<circle cx="321.351" cy="71.9287" r="2.58736" fill="#1A2B65"/>
<circle cx="321.351" cy="88.4877" r="2.58736" fill="#1A2B65"/>
<circle cx="321.351" cy="539.723" r="2.58736" fill="#1A2B65"/>
<circle cx="321.351" cy="556.282" r="2.58736" fill="#1A2B65"/>
<circle cx="321.868" cy="587.848" r="2.06989" fill="#1A2B65"/>
<circle cx="321.868" cy="604.407" r="2.06989" fill="#1A2B65"/>
<circle cx="321.35" cy="635.973" r="1.55242" fill="#1A2B65"/>
<circle cx="321.35" cy="652.532" r="1.55242" fill="#1A2B65"/>
<circle cx="321.868" cy="684.098" r="1.03494" fill="#1A2B65"/>
<circle cx="321.35" cy="701.175" r="0.517472" fill="#1A2B65"/>
<circle cx="321.868" cy="104.529" r="3.10483" fill="#1A2B65"/>
<circle cx="321.868" cy="121.088" r="3.10483" fill="#1A2B65"/>
<circle cx="321.868" cy="136.612" r="3.10483" fill="#1A2B65"/>
<circle cx="321.868" cy="153.172" r="3.10483" fill="#1A2B65"/>
<circle cx="321.868" cy="168.696" r="3.10483" fill="#1A2B65"/>
<circle cx="321.868" cy="185.255" r="3.10483" fill="#1A2B65"/>
<circle cx="321.868" cy="200.779" r="3.10483" fill="#1A2B65"/>
<circle cx="321.868" cy="410.873" r="3.10483" fill="#1A2B65"/>
<circle cx="321.868" cy="426.397" r="3.10483" fill="#1A2B65"/>
<circle cx="321.868" cy="442.956" r="3.10483" fill="#1A2B65"/>
<circle cx="321.868" cy="458.48" r="3.10483" fill="#1A2B65"/>
<circle cx="321.868" cy="475.039" r="3.10483" fill="#1A2B65"/>
<circle cx="321.868" cy="490.564" r="3.10483" fill="#1A2B65"/>
<circle cx="321.868" cy="507.122" r="3.10483" fill="#1A2B65"/>
<circle cx="321.868" cy="522.647" r="3.10483" fill="#1A2B65"/>
<circle cx="321.35" cy="217.856" r="3.6223" fill="#1A2B65"/>
<circle cx="321.35" cy="233.38" r="3.6223" fill="#1A2B65"/>
<circle cx="321.35" cy="249.939" r="3.6223" fill="#1A2B65"/>
<circle cx="321.35" cy="265.463" r="3.6223" fill="#1A2B65"/>
<circle cx="321.35" cy="282.022" r="3.6223" fill="#1A2B65"/>
<circle cx="321.35" cy="297.546" r="3.6223" fill="#1A2B65"/>
<circle cx="321.35" cy="314.105" r="3.6223" fill="#1A2B65"/>
<circle cx="321.35" cy="329.63" r="3.6223" fill="#1A2B65"/>
<circle cx="321.35" cy="347.224" r="3.6223" fill="#1A2B65"/>
<circle cx="321.35" cy="362.748" r="3.6223" fill="#1A2B65"/>
<circle cx="321.35" cy="379.307" r="3.6223" fill="#1A2B65"/>
<circle cx="321.35" cy="394.831" r="3.6223" fill="#1A2B65"/>
<circle cx="372.58" cy="34.1531" r="2.06989" fill="#111C43"/>
<circle cx="373.098" cy="50.1948" r="2.58736" fill="#111C43"/>
<circle cx="373.098" cy="65.7189" r="2.58736" fill="#111C43"/>
<circle cx="373.098" cy="82.278" r="2.58736" fill="#111C43"/>
<circle cx="372.58" cy="98.3197" r="3.10483" fill="#111C43"/>
<circle cx="372.58" cy="114.879" r="3.10483" fill="#111C43"/>
<circle cx="372.58" cy="131.438" r="3.10483" fill="#111C43"/>
<circle cx="372.58" cy="146.962" r="3.10483" fill="#111C43"/>
<circle cx="372.58" cy="162.486" r="3.10483" fill="#111C43"/>
<circle cx="372.58" cy="179.045" r="3.10483" fill="#111C43"/>
<circle cx="372.58" cy="195.604" r="3.10483" fill="#111C43"/>
<circle cx="372.58" cy="211.129" r="3.10483" fill="#111C43"/>
<circle cx="372.58" cy="227.688" r="3.10483" fill="#111C43"/>
<circle cx="372.58" cy="243.212" r="3.10483" fill="#111C43"/>
<circle cx="372.58" cy="258.736" r="3.10483" fill="#111C43"/>
<circle cx="372.58" cy="275.295" r="3.10483" fill="#111C43"/>
<circle cx="372.58" cy="291.854" r="3.10483" fill="#111C43"/>
<circle cx="372.58" cy="307.379" r="3.10483" fill="#111C43"/>
<circle cx="372.58" cy="323.937" r="3.10483" fill="#111C43"/>
<circle cx="373.098" cy="356.538" r="2.58736" fill="#111C43"/>
<circle cx="373.098" cy="372.062" r="2.58736" fill="#111C43"/>
<circle cx="373.098" cy="388.622" r="2.58736" fill="#111C43"/>
<circle cx="372.58" cy="405.698" r="2.06989" fill="#111C43"/>
<circle cx="372.58" cy="420.187" r="2.06989" fill="#111C43"/>
<circle cx="372.58" cy="436.746" r="2.06989" fill="#111C43"/>
<circle cx="372.58" cy="453.305" r="2.06989" fill="#111C43"/>
<circle cx="373.097" cy="484.871" r="1.55242" fill="#111C43"/>
<circle cx="372.58" cy="500.913" r="1.03494" fill="#111C43"/>
<circle cx="372.58" cy="517.472" r="1.03494" fill="#111C43"/>
<circle cx="408.803" cy="189.395" r="3.10483" fill="black"/>
<circle cx="408.803" cy="205.954" r="3.10483" fill="black"/>
<circle cx="408.803" cy="221.478" r="3.10483" fill="black"/>
<circle cx="408.803" cy="238.037" r="3.10483" fill="black"/>
<circle cx="408.803" cy="253.561" r="3.10483" fill="black"/>
<circle cx="408.803" cy="269.086" r="3.10483" fill="black"/>
<circle cx="408.803" cy="285.645" r="3.10483" fill="black"/>
<circle cx="408.803" cy="302.204" r="3.10483" fill="black"/>
<circle cx="408.803" cy="317.728" r="3.10483" fill="black"/>
<circle cx="408.803" cy="334.287" r="3.10483" fill="black"/>
<circle cx="409.321" cy="366.888" r="2.58736" fill="black"/>
<circle cx="409.321" cy="382.412" r="2.58736" fill="black"/>
<circle cx="409.321" cy="398.971" r="2.58736" fill="black"/>
<circle cx="355.503" cy="23.2861" r="2.58736" fill="#152353"/>
<circle cx="355.503" cy="474.522" r="2.58736" fill="#152353"/>
<circle cx="355.503" cy="491.081" r="2.58736" fill="#152353"/>
<circle cx="356.021" cy="522.647" r="2.06989" fill="#152353"/>
<circle cx="356.021" cy="539.206" r="2.06989" fill="#152353"/>
<circle cx="355.503" cy="570.772" r="1.55242" fill="#152353"/>
<circle cx="355.503" cy="587.331" r="1.55242" fill="#152353"/>
<circle cx="356.021" cy="39.3277" r="3.10483" fill="#152353"/>
<circle cx="356.021" cy="55.8868" r="3.10483" fill="#152353"/>
<circle cx="356.021" cy="71.411" r="3.10483" fill="#152353"/>
<circle cx="356.021" cy="87.9703" r="3.10483" fill="#152353"/>
<circle cx="356.021" cy="103.494" r="3.10483" fill="#152353"/>
<circle cx="356.021" cy="120.054" r="3.10483" fill="#152353"/>
<circle cx="356.021" cy="135.577" r="3.10483" fill="#152353"/>
<circle cx="356.021" cy="345.671" r="3.10483" fill="#152353"/>
<circle cx="356.021" cy="361.196" r="3.10483" fill="#152353"/>
<circle cx="356.021" cy="377.755" r="3.10483" fill="#152353"/>
<circle cx="356.021" cy="393.279" r="3.10483" fill="#152353"/>
<circle cx="356.021" cy="409.838" r="3.10483" fill="#152353"/>
<circle cx="356.021" cy="425.362" r="3.10483" fill="#152353"/>
<circle cx="356.021" cy="441.921" r="3.10483" fill="#152353"/>
<circle cx="356.021" cy="457.445" r="3.10483" fill="#152353"/>
<circle cx="355.503" cy="152.654" r="3.6223" fill="#152353"/>
<circle cx="355.503" cy="168.178" r="3.6223" fill="#152353"/>
<circle cx="355.503" cy="184.738" r="3.6223" fill="#152353"/>
<circle cx="355.503" cy="200.262" r="3.6223" fill="#152353"/>
<circle cx="355.503" cy="216.821" r="3.6223" fill="#152353"/>
<circle cx="355.503" cy="232.345" r="3.6223" fill="#152353"/>
<circle cx="355.503" cy="248.904" r="3.6223" fill="#152353"/>
<circle cx="355.503" cy="264.428" r="3.6223" fill="#152353"/>
<circle cx="355.503" cy="282.022" r="3.6223" fill="#152353"/>
<circle cx="355.503" cy="297.546" r="3.6223" fill="#152353"/>
<circle cx="355.503" cy="314.106" r="3.6223" fill="#152353"/>
<circle cx="355.503" cy="329.63" r="3.6223" fill="#152353"/>
<circle cx="391.727" cy="477.627" r="2.58736" fill="#0B132D"/>
<circle cx="391.727" cy="494.186" r="2.58736" fill="#0B132D"/>
<circle cx="392.244" cy="525.752" r="2.06989" fill="#0B132D"/>
<circle cx="392.244" cy="542.311" r="2.06989" fill="#0B132D"/>
<circle cx="392.244" cy="91.0751" r="3.10483" fill="#0B132D"/>
<circle cx="392.244" cy="106.599" r="3.10483" fill="#0B132D"/>
<circle cx="392.244" cy="123.159" r="3.10483" fill="#0B132D"/>
<circle cx="392.244" cy="138.683" r="3.10483" fill="#0B132D"/>
<circle cx="392.244" cy="348.776" r="3.10483" fill="#0B132D"/>
<circle cx="392.244" cy="364.3" r="3.10483" fill="#0B132D"/>
<circle cx="392.244" cy="380.859" r="3.10483" fill="#0B132D"/>
<circle cx="392.244" cy="396.383" r="3.10483" fill="#0B132D"/>
<circle cx="392.244" cy="412.943" r="3.10483" fill="#0B132D"/>
<circle cx="392.244" cy="428.467" r="3.10483" fill="#0B132D"/>
<circle cx="392.244" cy="445.026" r="3.10483" fill="#0B132D"/>
<circle cx="392.244" cy="460.55" r="3.10483" fill="#0B132D"/>
<circle cx="391.726" cy="155.759" r="3.6223" fill="#0B132D"/>
<circle cx="391.726" cy="171.283" r="3.6223" fill="#0B132D"/>
<circle cx="391.726" cy="187.843" r="3.6223" fill="#0B132D"/>
<circle cx="391.726" cy="203.366" r="3.6223" fill="#0B132D"/>
<circle cx="391.726" cy="219.926" r="3.6223" fill="#0B132D"/>
<circle cx="391.726" cy="235.45" r="3.6223" fill="#0B132D"/>
<circle cx="391.726" cy="252.009" r="3.6223" fill="#0B132D"/>
<circle cx="391.726" cy="267.533" r="3.6223" fill="#0B132D"/>
<circle cx="391.726" cy="285.127" r="3.6223" fill="#0B132D"/>
<circle cx="391.726" cy="300.651" r="3.6223" fill="#0B132D"/>
<circle cx="391.726" cy="317.21" r="3.6223" fill="#0B132D"/>
<circle cx="391.726" cy="332.735" r="3.6223" fill="#0B132D"/>
<circle cx="161.451" cy="8.2796" r="2.06989" fill="#274F9B"/>
<circle cx="161.451" cy="23.8038" r="2.06989" fill="#274F9B"/>
<circle cx="161.451" cy="40.3629" r="2.06989" fill="#274F9B"/>
<circle cx="161.969" cy="56.4045" r="2.58736" fill="#274F9B"/>
<circle cx="161.969" cy="71.9287" r="2.58736" fill="#274F9B"/>
<circle cx="161.969" cy="88.4877" r="2.58736" fill="#274F9B"/>
<circle cx="161.451" cy="104.529" r="3.10483" fill="#274F9B"/>
<circle cx="161.451" cy="121.088" r="3.10483" fill="#274F9B"/>
<circle cx="161.451" cy="137.648" r="3.10483" fill="#274F9B"/>
<circle cx="161.451" cy="153.172" r="3.10483" fill="#274F9B"/>
<circle cx="161.451" cy="168.696" r="3.10483" fill="#274F9B"/>
<circle cx="161.451" cy="185.255" r="3.10483" fill="#274F9B"/>
<circle cx="161.451" cy="201.814" r="3.10483" fill="#274F9B"/>
<circle cx="161.451" cy="217.338" r="3.10483" fill="#274F9B"/>
<circle cx="161.451" cy="233.897" r="3.10483" fill="#274F9B"/>
<circle cx="161.451" cy="249.421" r="3.10483" fill="#274F9B"/>
<circle cx="161.451" cy="264.946" r="3.10483" fill="#274F9B"/>
<circle cx="161.451" cy="281.505" r="3.10483" fill="#274F9B"/>
<circle cx="161.451" cy="298.064" r="3.10483" fill="#274F9B"/>
<circle cx="161.451" cy="313.588" r="3.10483" fill="#274F9B"/>
<circle cx="161.451" cy="330.147" r="3.10483" fill="#274F9B"/>
<circle cx="161.969" cy="362.748" r="2.58736" fill="#274F9B"/>
<circle cx="161.969" cy="378.272" r="2.58736" fill="#274F9B"/>
<circle cx="161.969" cy="394.831" r="2.58736" fill="#274F9B"/>
<circle cx="161.451" cy="411.908" r="2.06989" fill="#274F9B"/>
<circle cx="161.451" cy="426.397" r="2.06989" fill="#274F9B"/>
<circle cx="161.451" cy="442.956" r="2.06989" fill="#274F9B"/>
<circle cx="161.451" cy="459.515" r="2.06989" fill="#274F9B"/>
<circle cx="161.968" cy="491.081" r="1.55242" fill="#274F9B"/>
<circle cx="161.451" cy="507.123" r="1.03494" fill="#274F9B"/>
<circle cx="161.451" cy="523.682" r="1.03494" fill="#274F9B"/>
<circle cx="197.674" cy="12.4193" r="2.06989" fill="#2947A1"/>
<circle cx="197.674" cy="27.9434" r="2.06989" fill="#2947A1"/>
<circle cx="197.674" cy="44.5025" r="2.06989" fill="#2947A1"/>
<circle cx="198.192" cy="60.5441" r="2.58736" fill="#2947A1"/>
<circle cx="198.192" cy="76.0683" r="2.58736" fill="#2947A1"/>
<circle cx="198.192" cy="92.6274" r="2.58736" fill="#2947A1"/>
<circle cx="197.674" cy="108.669" r="3.10483" fill="#2947A1"/>
<circle cx="197.674" cy="125.228" r="3.10483" fill="#2947A1"/>
<circle cx="197.674" cy="141.787" r="3.10483" fill="#2947A1"/>
<circle cx="197.674" cy="157.311" r="3.10483" fill="#2947A1"/>
<circle cx="197.674" cy="172.836" r="3.10483" fill="#2947A1"/>
<circle cx="197.674" cy="189.395" r="3.10483" fill="#2947A1"/>
<circle cx="197.674" cy="205.954" r="3.10483" fill="#2947A1"/>
<circle cx="197.674" cy="221.478" r="3.10483" fill="#2947A1"/>
<circle cx="197.674" cy="238.037" r="3.10483" fill="#2947A1"/>
<circle cx="197.674" cy="253.561" r="3.10483" fill="#2947A1"/>
<circle cx="197.674" cy="269.085" r="3.10483" fill="#2947A1"/>
<circle cx="197.674" cy="285.645" r="3.10483" fill="#2947A1"/>
<circle cx="197.674" cy="302.203" r="3.10483" fill="#2947A1"/>
<circle cx="197.674" cy="317.728" r="3.10483" fill="#2947A1"/>
<circle cx="197.674" cy="334.287" r="3.10483" fill="#2947A1"/>
<circle cx="198.192" cy="366.888" r="2.58736" fill="#2947A1"/>
<circle cx="198.192" cy="382.412" r="2.58736" fill="#2947A1"/>
<circle cx="198.192" cy="398.971" r="2.58736" fill="#2947A1"/>
<circle cx="197.674" cy="416.047" r="2.06989" fill="#2947A1"/>
<circle cx="197.674" cy="430.537" r="2.06989" fill="#2947A1"/>
<circle cx="197.674" cy="447.096" r="2.06989" fill="#2947A1"/>
<circle cx="197.674" cy="463.655" r="2.06989" fill="#2947A1"/>
<circle cx="198.192" cy="495.221" r="1.55242" fill="#2947A1"/>
<circle cx="197.674" cy="511.262" r="1.03494" fill="#2947A1"/>
<circle cx="197.674" cy="527.821" r="1.03494" fill="#2947A1"/>
<circle cx="144.375" cy="6.72701" r="2.58736" fill="#265597"/>
<circle cx="144.375" cy="23.2861" r="2.58736" fill="#265597"/>
<circle cx="144.375" cy="474.522" r="2.58736" fill="#265597"/>
<circle cx="144.375" cy="491.081" r="2.58736" fill="#265597"/>
<circle cx="144.892" cy="522.647" r="2.06989" fill="#265597"/>
<circle cx="144.892" cy="539.206" r="2.06989" fill="#265597"/>
<circle cx="144.375" cy="570.772" r="1.55242" fill="#265597"/>
<circle cx="144.375" cy="587.331" r="1.55242" fill="#265597"/>
<circle cx="144.892" cy="618.897" r="1.03494" fill="#265597"/>
<circle cx="144.375" cy="635.973" r="0.517472" fill="#265597"/>
<circle cx="144.892" cy="39.3277" r="3.10483" fill="#265597"/>
<circle cx="144.892" cy="55.8868" r="3.10483" fill="#265597"/>
<circle cx="144.892" cy="71.411" r="3.10483" fill="#265597"/>
<circle cx="144.892" cy="87.9701" r="3.10483" fill="#265597"/>
<circle cx="144.892" cy="103.494" r="3.10483" fill="#265597"/>
<circle cx="144.892" cy="120.053" r="3.10483" fill="#265597"/>
<circle cx="144.892" cy="135.577" r="3.10483" fill="#265597"/>
<circle cx="144.892" cy="345.671" r="3.10483" fill="#265597"/>
<circle cx="144.892" cy="361.195" r="3.10483" fill="#265597"/>
<circle cx="144.892" cy="377.755" r="3.10483" fill="#265597"/>
<circle cx="144.892" cy="393.279" r="3.10483" fill="#265597"/>
<circle cx="144.892" cy="409.838" r="3.10483" fill="#265597"/>
<circle cx="144.892" cy="425.362" r="3.10483" fill="#265597"/>
<circle cx="144.892" cy="441.921" r="3.10483" fill="#265597"/>
<circle cx="144.892" cy="457.445" r="3.10483" fill="#265597"/>
<circle cx="144.375" cy="152.654" r="3.6223" fill="#265597"/>
<circle cx="144.375" cy="168.178" r="3.6223" fill="#265597"/>
<circle cx="144.375" cy="184.737" r="3.6223" fill="#265597"/>
<circle cx="144.375" cy="200.262" r="3.6223" fill="#265597"/>
<circle cx="144.375" cy="216.821" r="3.6223" fill="#265597"/>
<circle cx="144.375" cy="232.345" r="3.6223" fill="#265597"/>
<circle cx="144.375" cy="248.904" r="3.6223" fill="#265597"/>
<circle cx="144.375" cy="264.428" r="3.6223" fill="#265597"/>
<circle cx="144.375" cy="282.022" r="3.6223" fill="#265597"/>
<circle cx="144.375" cy="297.546" r="3.6223" fill="#265597"/>
<circle cx="144.375" cy="314.105" r="3.6223" fill="#265597"/>
<circle cx="144.375" cy="329.63" r="3.6223" fill="#265597"/>
<circle cx="180.598" cy="31.5659" r="2.58736" fill="#284A9F"/>
<circle cx="180.598" cy="48.125" r="2.58736" fill="#284A9F"/>
<circle cx="180.598" cy="499.361" r="2.58736" fill="#284A9F"/>
<circle cx="180.598" cy="515.92" r="2.58736" fill="#284A9F"/>
<circle cx="181.115" cy="547.485" r="2.06989" fill="#284A9F"/>
<circle cx="181.115" cy="564.045" r="2.06989" fill="#284A9F"/>
<circle cx="180.598" cy="595.61" r="1.55242" fill="#284A9F"/>
<circle cx="180.598" cy="612.169" r="1.55242" fill="#284A9F"/>
<circle cx="181.115" cy="643.735" r="1.03494" fill="#284A9F"/>
<circle cx="180.598" cy="660.812" r="0.517472" fill="#284A9F"/>
<circle cx="181.115" cy="64.1666" r="3.10483" fill="#284A9F"/>
<circle cx="181.115" cy="80.7257" r="3.10483" fill="#284A9F"/>
<circle cx="181.115" cy="96.2499" r="3.10483" fill="#284A9F"/>
<circle cx="181.115" cy="112.809" r="3.10483" fill="#284A9F"/>
<circle cx="181.115" cy="128.333" r="3.10483" fill="#284A9F"/>
<circle cx="181.115" cy="144.892" r="3.10483" fill="#284A9F"/>
<circle cx="181.115" cy="160.416" r="3.10483" fill="#284A9F"/>
<circle cx="181.115" cy="370.51" r="3.10483" fill="#284A9F"/>
<circle cx="181.115" cy="386.034" r="3.10483" fill="#284A9F"/>
<circle cx="181.115" cy="402.593" r="3.10483" fill="#284A9F"/>
<circle cx="181.115" cy="418.118" r="3.10483" fill="#284A9F"/>
<circle cx="181.115" cy="434.677" r="3.10483" fill="#284A9F"/>
<circle cx="181.115" cy="450.201" r="3.10483" fill="#284A9F"/>
<circle cx="181.115" cy="466.76" r="3.10483" fill="#284A9F"/>
<circle cx="181.115" cy="482.284" r="3.10483" fill="#284A9F"/>
<circle cx="180.597" cy="177.493" r="3.6223" fill="#284A9F"/>
<circle cx="180.597" cy="193.017" r="3.6223" fill="#284A9F"/>
<circle cx="180.597" cy="209.576" r="3.6223" fill="#284A9F"/>
<circle cx="180.597" cy="225.1" r="3.6223" fill="#284A9F"/>
<circle cx="180.597" cy="241.659" r="3.6223" fill="#284A9F"/>
<circle cx="180.597" cy="257.184" r="3.6223" fill="#284A9F"/>
<circle cx="180.597" cy="273.743" r="3.6223" fill="#284A9F"/>
<circle cx="180.597" cy="289.267" r="3.6223" fill="#284A9F"/>
<circle cx="180.597" cy="306.861" r="3.6223" fill="#284A9F"/>
<circle cx="180.597" cy="322.385" r="3.6223" fill="#284A9F"/>
<circle cx="180.597" cy="338.944" r="3.6223" fill="#284A9F"/>
<circle cx="180.597" cy="354.469" r="3.6223" fill="#284A9F"/>
<circle cx="231.827" cy="25.8736" r="2.06989" fill="#264097"/>
<circle cx="231.827" cy="41.3975" r="2.06989" fill="#264097"/>
<circle cx="231.827" cy="57.9566" r="2.06989" fill="#264097"/>
<circle cx="232.345" cy="73.9985" r="2.58736" fill="#264097"/>
<circle cx="232.345" cy="89.5227" r="2.58736" fill="#264097"/>
<circle cx="232.345" cy="106.081" r="2.58736" fill="#264097"/>
<circle cx="231.827" cy="122.123" r="3.10483" fill="#264097"/>
<circle cx="231.827" cy="138.682" r="3.10483" fill="#264097"/>
<circle cx="231.827" cy="155.242" r="3.10483" fill="#264097"/>
<circle cx="231.827" cy="170.766" r="3.10483" fill="#264097"/>
<circle cx="231.827" cy="186.29" r="3.10483" fill="#264097"/>
<circle cx="231.827" cy="202.849" r="3.10483" fill="#264097"/>
<circle cx="231.827" cy="219.408" r="3.10483" fill="#264097"/>
<circle cx="231.827" cy="234.932" r="3.10483" fill="#264097"/>
<circle cx="231.827" cy="251.491" r="3.10483" fill="#264097"/>
<circle cx="231.827" cy="267.015" r="3.10483" fill="#264097"/>
<circle cx="231.827" cy="282.54" r="3.10483" fill="#264097"/>
<circle cx="231.827" cy="299.099" r="3.10483" fill="#264097"/>
<circle cx="231.827" cy="315.658" r="3.10483" fill="#264097"/>
<circle cx="231.827" cy="331.182" r="3.10483" fill="#264097"/>
<circle cx="231.827" cy="347.741" r="3.10483" fill="#264097"/>
<circle cx="232.345" cy="380.342" r="2.58736" fill="#264097"/>
<circle cx="232.345" cy="395.866" r="2.58736" fill="#264097"/>
<circle cx="232.345" cy="412.425" r="2.58736" fill="#264097"/>
<circle cx="231.827" cy="429.502" r="2.06989" fill="#264097"/>
<circle cx="231.827" cy="443.991" r="2.06989" fill="#264097"/>
<circle cx="231.827" cy="460.55" r="2.06989" fill="#264097"/>
<circle cx="231.827" cy="477.109" r="2.06989" fill="#264097"/>
<circle cx="232.345" cy="508.675" r="1.55242" fill="#264097"/>
<circle cx="231.827" cy="524.717" r="1.03494" fill="#264097"/>
<circle cx="231.827" cy="541.276" r="1.03494" fill="#264097"/>
<circle cx="268.051" cy="12.4193" r="2.06989" fill="#213782"/>
<circle cx="268.051" cy="27.9434" r="2.06989" fill="#213782"/>
<circle cx="268.051" cy="44.5025" r="2.06989" fill="#213782"/>
<circle cx="268.568" cy="60.5441" r="2.58736" fill="#213782"/>
<circle cx="268.568" cy="76.0683" r="2.58736" fill="#213782"/>
<circle cx="268.568" cy="92.6274" r="2.58736" fill="#213782"/>
<circle cx="268.051" cy="108.669" r="3.10483" fill="#213782"/>
<circle cx="268.051" cy="125.228" r="3.10483" fill="#213782"/>
<circle cx="268.051" cy="141.787" r="3.10483" fill="#213782"/>
<circle cx="268.051" cy="157.311" r="3.10483" fill="#213782"/>
<circle cx="268.051" cy="172.836" r="3.10483" fill="#213782"/>
<circle cx="268.051" cy="189.395" r="3.10483" fill="#213782"/>
<circle cx="268.051" cy="205.954" r="3.10483" fill="#213782"/>
<circle cx="268.051" cy="221.478" r="3.10483" fill="#213782"/>
<circle cx="268.051" cy="238.037" r="3.10483" fill="#213782"/>
<circle cx="268.051" cy="253.561" r="3.10483" fill="#213782"/>
<circle cx="268.051" cy="269.085" r="3.10483" fill="#213782"/>
<circle cx="268.051" cy="285.645" r="3.10483" fill="#213782"/>
<circle cx="268.051" cy="302.203" r="3.10483" fill="#213782"/>
<circle cx="268.051" cy="317.728" r="3.10483" fill="#213782"/>
<circle cx="268.051" cy="334.287" r="3.10483" fill="#213782"/>
<circle cx="268.568" cy="366.888" r="2.58736" fill="#213782"/>
<circle cx="268.568" cy="382.412" r="2.58736" fill="#213782"/>
<circle cx="268.568" cy="398.971" r="2.58736" fill="#213782"/>
<circle cx="268.051" cy="416.047" r="2.06989" fill="#213782"/>
<circle cx="268.051" cy="430.537" r="2.06989" fill="#213782"/>
<circle cx="268.051" cy="447.096" r="2.06989" fill="#213782"/>
<circle cx="268.051" cy="463.655" r="2.06989" fill="#213782"/>
<circle cx="268.568" cy="495.221" r="1.55242" fill="#213782"/>
<circle cx="268.051" cy="511.262" r="1.03494" fill="#213782"/>
<circle cx="268.051" cy="527.821" r="1.03494" fill="#213782"/>
<circle cx="214.75" cy="113.326" r="2.58736" fill="#2945A1"/>
<circle cx="214.75" cy="129.885" r="2.58736" fill="#2945A1"/>
<circle cx="214.75" cy="581.121" r="2.58736" fill="#2945A1"/>
<circle cx="214.75" cy="597.68" r="2.58736" fill="#2945A1"/>
<circle cx="215.268" cy="629.246" r="2.06989" fill="#2945A1"/>
<circle cx="215.268" cy="645.805" r="2.06989" fill="#2945A1"/>
<circle cx="214.751" cy="677.371" r="1.55242" fill="#2945A1"/>
<circle cx="214.751" cy="693.93" r="1.55242" fill="#2945A1"/>
<circle cx="215.268" cy="725.496" r="1.03494" fill="#2945A1"/>
<circle cx="214.751" cy="742.572" r="0.517472" fill="#2945A1"/>
<circle cx="215.268" cy="145.927" r="3.10483" fill="#2945A1"/>
<circle cx="215.268" cy="162.486" r="3.10483" fill="#2945A1"/>
<circle cx="215.268" cy="178.01" r="3.10483" fill="#2945A1"/>
<circle cx="215.268" cy="194.57" r="3.10483" fill="#2945A1"/>
<circle cx="215.268" cy="210.094" r="3.10483" fill="#2945A1"/>
<circle cx="215.268" cy="226.653" r="3.10483" fill="#2945A1"/>
<circle cx="215.268" cy="242.177" r="3.10483" fill="#2945A1"/>
<circle cx="215.268" cy="452.271" r="3.10483" fill="#2945A1"/>
<circle cx="215.268" cy="467.795" r="3.10483" fill="#2945A1"/>
<circle cx="215.268" cy="484.354" r="3.10483" fill="#2945A1"/>
<circle cx="215.268" cy="499.878" r="3.10483" fill="#2945A1"/>
<circle cx="215.268" cy="516.437" r="3.10483" fill="#2945A1"/>
<circle cx="215.268" cy="531.961" r="3.10483" fill="#2945A1"/>
<circle cx="215.268" cy="548.52" r="3.10483" fill="#2945A1"/>
<circle cx="215.268" cy="564.045" r="3.10483" fill="#2945A1"/>
<circle cx="214.751" cy="259.254" r="3.6223" fill="#2945A1"/>
<circle cx="214.751" cy="274.778" r="3.6223" fill="#2945A1"/>
<circle cx="214.751" cy="291.337" r="3.6223" fill="#2945A1"/>
<circle cx="214.751" cy="306.861" r="3.6223" fill="#2945A1"/>
<circle cx="214.751" cy="323.42" r="3.6223" fill="#2945A1"/>
<circle cx="214.751" cy="338.944" r="3.6223" fill="#2945A1"/>
<circle cx="214.751" cy="355.503" r="3.6223" fill="#2945A1"/>
<circle cx="214.751" cy="371.028" r="3.6223" fill="#2945A1"/>
<circle cx="214.751" cy="388.622" r="3.6223" fill="#2945A1"/>
<circle cx="214.751" cy="404.146" r="3.6223" fill="#2945A1"/>
<circle cx="214.751" cy="420.705" r="3.6223" fill="#2945A1"/>
<circle cx="214.751" cy="436.229" r="3.6223" fill="#2945A1"/>
<circle cx="250.974" cy="9.83199" r="2.58736" fill="#233C8C"/>
<circle cx="250.974" cy="26.3911" r="2.58736" fill="#233C8C"/>
<circle cx="250.974" cy="477.627" r="2.58736" fill="#233C8C"/>
<circle cx="250.974" cy="494.186" r="2.58736" fill="#233C8C"/>
<circle cx="251.491" cy="525.752" r="2.06989" fill="#233C8C"/>
<circle cx="251.491" cy="542.311" r="2.06989" fill="#233C8C"/>
<circle cx="250.974" cy="573.877" r="1.55242" fill="#233C8C"/>
<circle cx="250.974" cy="590.436" r="1.55242" fill="#233C8C"/>
<circle cx="251.491" cy="622.001" r="1.03494" fill="#233C8C"/>
<circle cx="250.974" cy="639.078" r="0.517472" fill="#233C8C"/>
<circle cx="251.492" cy="42.4327" r="3.10483" fill="#233C8C"/>
<circle cx="251.492" cy="58.9918" r="3.10483" fill="#233C8C"/>
<circle cx="251.492" cy="74.516" r="3.10483" fill="#233C8C"/>
<circle cx="251.492" cy="91.0751" r="3.10483" fill="#233C8C"/>
<circle cx="251.492" cy="106.599" r="3.10483" fill="#233C8C"/>
<circle cx="251.492" cy="123.158" r="3.10483" fill="#233C8C"/>
<circle cx="251.492" cy="138.682" r="3.10483" fill="#233C8C"/>
<circle cx="251.492" cy="348.776" r="3.10483" fill="#233C8C"/>
<circle cx="251.492" cy="364.3" r="3.10483" fill="#233C8C"/>
<circle cx="251.492" cy="380.859" r="3.10483" fill="#233C8C"/>
<circle cx="251.492" cy="396.383" r="3.10483" fill="#233C8C"/>
<circle cx="251.492" cy="412.943" r="3.10483" fill="#233C8C"/>
<circle cx="251.492" cy="428.467" r="3.10483" fill="#233C8C"/>
<circle cx="251.492" cy="445.026" r="3.10483" fill="#233C8C"/>
<circle cx="251.492" cy="460.55" r="3.10483" fill="#233C8C"/>
<circle cx="250.974" cy="155.759" r="3.6223" fill="#233C8C"/>
<circle cx="250.974" cy="171.283" r="3.6223" fill="#233C8C"/>
<circle cx="250.974" cy="187.842" r="3.6223" fill="#233C8C"/>
<circle cx="250.974" cy="203.366" r="3.6223" fill="#233C8C"/>
<circle cx="250.974" cy="219.926" r="3.6223" fill="#233C8C"/>
<circle cx="250.974" cy="235.45" r="3.6223" fill="#233C8C"/>
<circle cx="250.974" cy="252.009" r="3.6223" fill="#233C8C"/>
<circle cx="250.974" cy="267.533" r="3.6223" fill="#233C8C"/>
<circle cx="250.974" cy="285.127" r="3.6223" fill="#233C8C"/>
<circle cx="250.974" cy="300.651" r="3.6223" fill="#233C8C"/>
<circle cx="250.974" cy="317.21" r="3.6223" fill="#233C8C"/>
<circle cx="250.974" cy="332.734" r="3.6223" fill="#233C8C"/>
</svg>
