<svg width="587" height="655" viewBox="0 0 587 655" fill="none" xmlns="http://www.w3.org/2000/svg">
  <mask id="mask0_26_9296" style="mask-type:alpha" maskUnits="userSpaceOnUse" x="0" y="0" width="587" height="655">
  <rect width="587" height="655" fill="white"/>
  </mask>
  <g mask="url(#mask0_26_9296)">
  <mask id="mask1_26_9296" style="mask-type:alpha" maskUnits="userSpaceOnUse" x="0" y="181" width="508" height="511">
  <rect y="181.806" width="507.804" height="509.627" fill="url(#paint0_linear_26_9296)"/>
  </mask>
  <g mask="url(#mask1_26_9296)">
  <path fill-rule="evenodd" clip-rule="evenodd" d="M507.804 435.708C507.804 575.935 394.128 689.61 253.902 689.61C113.676 689.61 0 575.935 0 435.708C0 295.482 113.676 181.806 253.902 181.806C394.128 181.806 507.804 295.482 507.804 435.708ZM489.924 435.708C489.924 566.059 384.253 671.73 253.902 671.73C123.551 671.73 17.8806 566.059 17.8806 435.708C17.8806 305.357 123.551 199.687 253.902 199.687C384.253 199.687 489.924 305.357 489.924 435.708ZM253.902 649.308C371.87 649.308 467.502 553.676 467.502 435.708C467.502 317.74 371.87 222.108 253.902 222.108C135.934 222.108 40.3018 317.74 40.3018 435.708C40.3018 553.676 135.934 649.308 253.902 649.308ZM253.903 634.266C363.563 634.266 452.461 545.369 452.461 435.708C452.461 326.048 363.563 237.15 253.903 237.15C144.242 237.15 55.3448 326.048 55.3448 435.708C55.3448 545.369 144.242 634.266 253.903 634.266ZM429.215 435.708C429.215 532.531 350.725 611.022 253.902 611.022C157.079 611.022 78.5887 532.531 78.5887 435.708C78.5887 338.886 157.079 260.395 253.902 260.395C350.725 260.395 429.215 338.886 429.215 435.708ZM416.869 435.709C416.869 525.713 343.906 598.676 253.902 598.676C163.898 598.676 90.9346 525.713 90.9346 435.709C90.9346 345.704 163.898 272.741 253.902 272.741C343.906 272.741 416.869 345.704 416.869 435.709ZM396.974 435.709C396.974 514.725 332.918 578.78 253.902 578.78C174.886 578.78 110.83 514.725 110.83 435.709C110.83 356.692 174.886 292.637 253.902 292.637C332.918 292.637 396.974 356.692 396.974 435.709ZM386.899 435.709C386.899 509.161 327.354 568.705 253.902 568.705C180.45 568.705 120.906 509.161 120.906 435.709C120.906 362.257 180.45 302.712 253.902 302.712C327.354 302.712 386.899 362.257 386.899 435.709Z" fill="#7D52BA"/>
  </g>
  <mask id="mask2_26_9296" style="mask-type:alpha" maskUnits="userSpaceOnUse" x="178" y="198" width="549" height="550">
  <rect x="178.672" y="198.263" width="547.77" height="549.737" fill="url(#paint1_linear_26_9296)"/>
  </mask>
  <g mask="url(#mask2_26_9296)">
  <path fill-rule="evenodd" clip-rule="evenodd" d="M726.442 472.148C726.442 623.411 603.819 746.033 452.557 746.033C301.294 746.033 178.672 623.411 178.672 472.148C178.672 320.885 301.294 198.263 452.557 198.263C603.819 198.263 726.442 320.885 726.442 472.148ZM707.154 472.148C707.154 612.758 593.167 726.745 452.557 726.745C311.947 726.745 197.96 612.758 197.96 472.148C197.96 331.538 311.947 217.551 452.557 217.551C593.167 217.551 707.154 331.538 707.154 472.148ZM452.557 702.559C579.81 702.559 682.968 599.401 682.968 472.148C682.968 344.895 579.81 241.737 452.557 241.737C325.304 241.737 222.146 344.895 222.146 472.148C222.146 599.401 325.304 702.559 452.557 702.559ZM452.557 686.333C570.848 686.333 666.742 590.439 666.742 472.148C666.742 353.857 570.848 257.963 452.557 257.963C334.266 257.963 238.372 353.857 238.372 472.148C238.372 590.439 334.266 686.333 452.557 686.333ZM641.668 472.148C641.668 576.591 557 661.259 452.557 661.259C348.114 661.259 263.446 576.591 263.446 472.148C263.446 367.705 348.114 283.037 452.557 283.037C557 283.037 641.668 367.705 641.668 472.148ZM628.35 472.148C628.35 569.236 549.645 647.941 452.557 647.941C355.469 647.941 276.763 569.236 276.763 472.148C276.763 375.06 355.469 296.355 452.557 296.355C549.645 296.355 628.35 375.06 628.35 472.148ZM606.889 472.148C606.889 557.383 537.792 626.48 452.557 626.48C367.321 626.48 298.225 557.383 298.225 472.148C298.225 386.913 367.321 317.816 452.557 317.816C537.792 317.816 606.889 386.913 606.889 472.148ZM596.021 472.148C596.021 551.381 531.79 615.612 452.557 615.612C373.324 615.612 309.094 551.381 309.094 472.148C309.094 392.915 373.324 328.685 452.557 328.685C531.79 328.685 596.021 392.915 596.021 472.148Z" fill="#7D52BA"/>
  </g>
  <mask id="mask3_26_9296" style="mask-type:alpha" maskUnits="userSpaceOnUse" x="158" y="0" width="525" height="526">
  <rect x="158.297" width="523.947" height="525.828" fill="url(#paint2_linear_26_9296)"/>
  </mask>
  <g mask="url(#mask3_26_9296)">
  <path fill-rule="evenodd" clip-rule="evenodd" d="M682.244 261.973C682.244 406.657 564.954 523.947 420.27 523.947C275.586 523.947 158.297 406.657 158.297 261.973C158.297 117.289 275.586 0 420.27 0C564.954 0 682.244 117.289 682.244 261.973ZM663.795 261.973C663.795 396.468 554.765 505.498 420.27 505.498C285.776 505.498 176.746 396.468 176.746 261.973C176.746 127.478 285.776 18.4487 420.27 18.4487C554.765 18.4487 663.795 127.478 663.795 261.973ZM420.27 482.364C541.988 482.364 640.661 383.691 640.661 261.973C640.661 140.255 541.988 41.583 420.27 41.583C298.552 41.583 199.88 140.255 199.88 261.973C199.88 383.691 298.552 482.364 420.27 482.364ZM420.271 466.843C533.417 466.843 625.141 375.12 625.141 261.973C625.141 148.827 533.417 57.1033 420.271 57.1033C307.124 57.1033 215.401 148.827 215.401 261.973C215.401 375.12 307.124 466.843 420.271 466.843ZM601.157 261.973C601.157 361.874 520.171 442.86 420.27 442.86C320.369 442.86 239.384 361.874 239.384 261.973C239.384 162.073 320.369 81.087 420.27 81.087C520.171 81.087 601.157 162.073 601.157 261.973ZM588.418 261.973C588.418 354.839 513.136 430.121 420.27 430.121C327.405 430.121 252.122 354.839 252.122 261.973C252.122 169.108 327.405 93.8255 420.27 93.8255C513.136 93.8255 588.418 169.108 588.418 261.973ZM567.89 261.973C567.89 343.502 501.798 409.593 420.27 409.593C338.742 409.593 272.65 343.502 272.65 261.973C272.65 180.445 338.742 114.354 420.27 114.354C501.798 114.354 567.89 180.445 567.89 261.973ZM557.494 261.973C557.494 337.76 496.057 399.198 420.27 399.198C344.483 399.198 283.046 337.76 283.046 261.973C283.046 186.187 344.483 124.749 420.27 124.749C496.057 124.749 557.494 186.187 557.494 261.973Z" fill="#7D52BA"/>
  </g>
  </g>
  <defs>
  <linearGradient id="paint0_linear_26_9296" x1="964.098" y1="910.236" x2="37.8346" y2="254.285" gradientUnits="userSpaceOnUse">
  <stop stop-color="white"/>
  <stop offset="1" stop-color="white" stop-opacity="0"/>
  </linearGradient>
  <linearGradient id="paint1_linear_26_9296" x1="1218.65" y1="984.023" x2="219.484" y2="276.446" gradientUnits="userSpaceOnUse">
  <stop stop-color="white"/>
  <stop offset="1" stop-color="white" stop-opacity="0"/>
  </linearGradient>
  <linearGradient id="paint2_linear_26_9296" x1="1153.04" y1="751.586" x2="197.334" y2="74.7825" gradientUnits="userSpaceOnUse">
  <stop stop-color="white"/>
  <stop offset="1" stop-color="white" stop-opacity="0"/>
  </linearGradient>
  </defs>
</svg>
