<svg width="572" height="86" viewBox="0 0 572 86" fill="none" xmlns="http://www.w3.org/2000/svg">
  <path d="M35.2 68.2C34.7 68.2 33.6 67.9 32 67.3C30.2 66.7 28.2 65.8 25.8 64.8C23.4 63.8 20.9 62.7 18.3 61.5L10.8 57.9C8.4 56.8 6.3 55.7 4.6 54.7C2.8 53.8 1.7 53.1 1.3 52.7L0.9 52.3C0.7 52.2 0.5 52 0.3 51.8C0.1 51.6 7.45058e-08 51.4 7.45058e-08 51.1C7.45058e-08 50.7 0.1 50.3 0.5 49.9C0.8 49.5 1.2 49.2 1.8 48.9L34.3 32.4C34.7 32.2 35 32.1 35.4 32.1C35.6 32.1 36 32 36.6 32C37 32 37.3 32.2 37.7 32.5C38 32.9 38.3 33.3 38.7 33.8C39.1 34.4 39.4 35.1 39.6 35.7C39.8 36.3 39.9 36.8 39.9 37.1C39.9 37.5 39.5 37.9 38.8 38.3C38 38.9 37.1 39.5 35.9 40.1C34.7 40.7 33.3 41.4 31.8 42.1L27.3 44.2C24.4 45.6 21.6 46.8 19 47.9C16.2 49.1 14.2 50 12.9 50.5C17.6 52.9 22.1 55 26.3 56.8C30.5 58.7 34.7 60.5 39 62.1C39.2 62.5 39.5 63 39.8 63.5C40 64 40.2 64.4 40.2 64.7C40.2 65.1 40 65.4 39.6 65.8C39.2 66.2 38.8 66.6 38.3 66.9C37.7 67.3 37.2 67.7 36.6 67.9C36 68.1 35.6 68.2 35.2 68.2ZM136.296 30.5C136.296 38.1 135.596 44.6 134.196 49.9C132.796 55.3 130.796 59.7 128.296 63.1C125.796 66.5 122.796 69 119.296 70.5C115.696 72.1 111.696 72.9 107.496 72.9C106.196 72.9 104.296 72.6 101.896 71.9C99.4961 71.3 96.7961 70.2 93.9961 68.7C93.7961 70.1 93.3961 71 92.6961 71.5C91.8961 72.1 91.0961 72.4 90.1961 72.4C89.8961 72.4 89.4961 72.3 89.0961 72.1C88.5961 71.9 88.1961 71.7 87.7961 71.3C87.3961 71.1 86.9961 70.8 86.6961 70.4C86.3961 70.1 86.2961 69.8 86.2961 69.4L86.4961 62.7L86.7961 56.3C86.7961 54.1 86.8961 51.7 86.8961 49.1C86.8961 46.7 86.9961 43.9 86.9961 40.7C86.9961 39.7 86.8961 38.4 86.8961 37V32.5L86.6961 27.9L86.2961 23.3C85.3961 22.4 84.9961 21.5 84.9961 20.6C84.9961 20.2 84.9961 19.9 85.0961 19.6C85.1961 19.4 85.3961 19 85.7961 18.4C85.6961 17.9 85.6961 17.4 85.6961 16.9L85.4961 15.7C85.2961 15.1 85.1961 14.6 85.0961 14.1C84.8961 13.6 84.5961 13.1 84.2961 12.5C84.0961 12 83.8961 11.5 83.6961 11.1C83.4961 10.7 83.4961 10.2 83.4961 9.6C83.4961 9.4 83.5961 9.09999 83.8961 8.7C84.1961 8.3 84.5961 7.8 85.0961 7.3C85.4961 6.9 85.8961 6.6 86.2961 6.29999C86.6961 6 87.0961 5.79999 87.2961 5.79999C88.0961 5.79999 89.0961 6.1 90.2961 6.5C91.2961 7 91.9961 7.5 92.2961 8C92.2961 8.2 92.3961 8.4 92.4961 8.7C92.4961 9.09999 92.5961 9.8 92.7961 10.8C99.5961 6.2 106.196 3.8 112.596 3.8C115.996 3.8 119.196 4.49999 122.096 5.7C124.996 7.1 127.496 8.9 129.696 11.2C131.696 13.6 133.296 16.4 134.496 19.6C135.696 22.9 136.296 26.5 136.296 30.5ZM128.096 32.2C128.096 29.4 127.696 26.7 126.896 24.1C126.096 21.5 124.896 19.2 123.496 17.1C122.096 15.1 120.396 13.4 118.396 12.1C116.396 10.9 114.196 10.3 111.796 10.3C109.796 10.3 108.196 10.5 106.896 10.7C105.596 11 104.396 11.5 103.296 12.1C102.096 12.9 100.996 13.7 100.096 14.5C99.4961 15 98.9961 15.5 98.4961 16L96.6961 17.8C96.0961 18.2 95.6961 18.7 95.4961 19.1L94.8961 19.9C94.6961 20.1 94.3961 20.4 94.1961 20.7C94.1961 22.8 94.2961 24.9 94.2961 26.9L94.4961 33V62.2C95.0961 62.4 95.4961 62.5 95.8961 62.6C96.2961 62.8 96.6961 63 97.0961 63.2C97.4961 63.5 97.8961 63.8 98.2961 64.1C98.6961 64.4 99.1961 64.7 99.7961 65C100.796 65.6 101.896 66.2 103.296 66.7C104.496 67.2 105.996 67.4 107.696 67.4C110.496 67.4 113.096 66.7 115.696 65.3C118.096 63.9 120.296 61.8 122.096 58.9C123.896 56 125.396 52.3 126.496 47.9C127.496 43.5 128.096 38.3 128.096 32.2ZM187.089 65C187.089 66.4 186.389 67.6 185.089 68.6C183.689 69.7 181.889 70.6 179.889 71.4C177.889 72.2 175.689 72.9 173.289 73.3C170.789 73.7 168.489 73.9 166.289 73.9C162.589 73.9 159.489 73.3 156.889 72.3C154.189 71.2 151.989 69.7 150.289 67.9C148.589 66.1 147.289 64.1 146.489 61.7C145.689 59.4 145.289 57 145.289 54.6C145.289 51.4 145.789 48.1 146.889 44.9C147.989 41.7 149.489 38.8 151.289 36.2C152.989 33.7 154.989 31.6 157.189 30C159.389 28.4 161.589 27.6 163.889 27.6C166.189 27.6 168.689 27.9 171.389 28.4C173.989 29 176.389 29.8 178.389 30.8C180.889 32.2 182.989 33.8 184.689 35.7C186.289 37.7 187.089 40.1 187.089 42.7C187.089 44.6 186.489 46.4 185.289 48C184.089 49.7 182.589 51.2 180.689 52.4C178.689 53.7 176.489 54.7 173.889 55.5C171.289 56.3 168.589 56.6 165.789 56.6C163.789 56.6 161.689 56.3 159.489 55.7C157.289 55.1 155.389 54.4 153.789 53.4C153.789 55.5 153.989 57.5 154.589 59.5C155.089 61.5 155.989 63.1 157.289 64.4C158.489 65.8 160.089 66.8 161.889 67.5C163.589 68.3 165.589 68.7 167.789 68.7C168.989 68.7 170.289 68.6 171.589 68.2C172.789 67.9 174.089 67.5 175.289 66.9C176.489 66.4 177.589 65.8 178.689 65.2C179.689 64.6 180.589 64 181.489 63.4C182.289 62.9 183.189 62.6 184.189 62.6C184.989 62.6 185.689 62.9 186.289 63.5C186.789 64.1 187.089 64.6 187.089 65ZM179.889 43C179.889 41.5 179.489 40.1 178.689 38.9C177.889 37.8 176.889 36.9 175.689 36.1C174.489 35.4 172.989 34.8 171.289 34.4C169.589 34 168.089 33.8 166.789 33.8C165.389 33.8 164.089 34.2 162.889 34.8C161.589 35.5 160.489 36.4 159.489 37.5C158.389 38.6 157.489 39.9 156.689 41.3C155.889 42.8 155.289 44.3 154.889 45.9C155.489 47.6 156.689 48.9 158.689 49.7C160.589 50.7 162.989 51.1 165.789 51.1C167.389 51.1 168.989 50.9 170.689 50.5C172.289 50.1 173.889 49.6 175.289 48.9C176.589 48.2 177.689 47.3 178.589 46.3C179.389 45.3 179.889 44.2 179.889 43ZM437.014 31.1C437.014 31.9 436.614 32.6 436.014 33.4C435.214 34.2 434.514 34.6 433.814 34.6C433.614 34.6 433.314 34.6 432.814 34.5C432.214 34.5 431.814 34.5 431.614 34.4C430.914 34.2 430.414 34 430.114 34C428.914 34 427.714 34.3 426.614 34.9C425.414 35.5 424.214 36.1 423.214 36.9C422.214 37.7 421.314 38.6 420.514 39.5C419.714 40.5 419.014 41.3 418.614 42C417.814 43.4 416.914 44.7 416.014 46.1C415.014 47.6 414.214 49 413.514 50.3C412.714 51.7 412.114 52.9 411.614 54.1C411.114 55.4 410.914 56.5 410.914 57.3C410.914 59.5 411.114 61.7 411.614 63.9C412.014 66.2 412.214 68.2 412.214 70C412.214 71.2 411.714 72.1 410.914 72.9C410.014 73.6 408.914 74 407.514 74C405.514 74 404.114 73.3 403.314 72C402.714 71.1 402.314 70 402.214 68.8C402.014 67.6 401.814 66.4 401.814 65.2L401.614 57.6C401.414 55.1 401.414 52.6 401.414 50V44.3L401.614 38.7C401.614 37.1 401.714 35.6 401.814 34.4C401.814 33.2 401.914 32.5 402.014 32.2C402.314 31.3 402.914 30.5 403.814 29.8C404.614 29.2 405.514 28.8 406.614 28.8C407.714 28.8 408.714 29.2 409.614 29.9C410.414 30.7 410.914 31.7 410.914 33C410.914 34.4 410.814 36 410.814 37.7C410.614 39.5 410.514 41.6 410.314 43.9C411.514 41.3 413.014 38.9 414.714 36.7C416.314 34.6 418.014 32.8 419.814 31.3C421.514 29.9 423.214 28.9 425.014 28.1C426.714 27.3 428.314 26.9 429.914 26.9C430.514 26.9 431.314 27 432.214 27.2C433.014 27.4 433.714 27.7 434.514 28.1C435.214 28.5 435.814 28.9 436.314 29.3C436.714 29.9 437.014 30.5 437.014 31.1ZM523.044 3.9C523.044 4.6 522.744 5.5 522.344 6.7C521.944 8 521.544 9 521.344 9.6C519.544 13.8 517.644 17.9 515.444 21.9C513.244 25.9 511.144 29.9 509.144 33.9L500.144 52.1C497.144 58.1 493.944 64.1 490.544 70C490.144 70.8 489.444 71.9 488.644 73.3C487.744 74.7 486.844 76.1 485.844 77.7C484.844 79.3 483.844 80.7 482.944 82.1C481.944 83.3 481.044 84.2 480.444 84.6C479.644 85.1 478.844 85.4 478.044 85.4C477.444 85.4 476.944 85.2 476.544 85C476.044 84.7 475.844 84.2 475.844 83.6C475.844 83 476.144 82.1 476.944 80.7C477.644 79.2 478.544 77.5 479.744 75.5L481.644 72.1C482.244 71 482.944 69.9 483.544 68.8C484.144 67.8 484.644 66.8 485.144 65.9L486.044 64.1C488.644 58.7 491.244 53.4 493.844 48.1C496.444 42.9 498.744 37.5 500.944 31.9C502.044 29.1 503.144 26.4 504.344 23.6L507.944 15.3C508.744 13.4 509.644 11.4 510.444 9.3C511.244 7.3 512.244 5.5 513.444 3.7C514.244 2.59999 515.044 1.69999 516.044 1.1C516.944 0.499998 518.144 0.199996 519.644 0.199996C520.644 0.199996 521.544 0.599996 522.144 1.3C522.744 2.09999 523.044 2.9 523.044 3.9ZM536.641 68.2C536.241 68.2 535.741 68.1 535.241 67.9C534.641 67.7 534.041 67.3 533.541 66.9C532.941 66.6 532.541 66.2 532.241 65.8C531.841 65.4 531.641 65.1 531.641 64.7C531.641 64.4 531.741 64 532.041 63.5C532.241 63 532.541 62.5 532.841 62.1C537.041 60.5 541.341 58.7 545.541 56.8C549.741 55 554.241 52.9 559.041 50.5C558.341 50.3 557.441 49.9 556.441 49.4C555.341 49 554.141 48.5 552.841 47.9C551.541 47.4 550.241 46.8 548.841 46.1C547.341 45.5 545.941 44.9 544.541 44.2C542.941 43.6 541.441 42.9 540.041 42.1C538.441 41.4 537.141 40.7 535.941 40.1C534.741 39.5 533.741 38.9 533.041 38.3C532.241 37.9 531.941 37.5 531.941 37.1C531.941 36.8 532.041 36.3 532.241 35.7C532.441 35.1 532.741 34.4 533.141 33.8C533.441 33.3 533.741 32.9 534.141 32.5C534.441 32.2 534.841 32 535.241 32C535.741 32 536.141 32.1 536.541 32.1C536.841 32.1 537.141 32.2 537.541 32.4L570.041 48.9C570.541 49.2 570.941 49.5 571.341 49.9C571.641 50.3 571.841 50.7 571.841 51.1C571.841 51.4 571.741 51.6 571.541 51.8L571.041 52.3L570.541 52.7C570.041 53.1 568.941 53.8 567.241 54.7C565.441 55.7 563.441 56.8 561.041 57.9C558.641 59.1 556.141 60.3 553.541 61.5L546.041 64.8C543.641 65.8 541.541 66.7 539.841 67.3C538.141 67.9 537.041 68.2 536.641 68.2Z" fill="#A7A7A7"/>
  <path d="M237.094 62.3C237.094 63.2 236.594 64.1 235.794 64.9C234.894 65.9 233.594 67.1 231.894 68.5C229.494 70.5 226.994 71.9 224.294 72.5C221.594 73.1 218.894 73.4 216.194 73.4C213.194 73.4 210.494 73 207.894 72.3C205.294 71.6 203.094 70.5 201.294 69C199.294 67.6 197.794 65.7 196.694 63.5C195.594 61.4 195.094 58.9 195.094 56C195.094 52.8 195.594 49.5 196.694 46.1C197.694 42.7 199.194 39.6 201.194 36.8C203.094 34 205.394 31.7 208.094 29.9C210.794 28.2 213.794 27.3 217.094 27.3C219.794 27.3 222.494 27.7 225.094 28.5C227.694 29.3 230.394 30.7 233.094 32.9C233.894 33.7 234.694 34.5 235.394 35.3C235.994 36.2 236.394 37.1 236.394 37.9C236.394 38.9 235.994 39.8 235.294 40.5C234.494 41.3 233.694 41.6 232.794 41.6C232.094 41.6 231.294 41.3 230.294 40.7C229.294 40.1 228.594 39.5 227.994 38.8C226.394 37.1 224.894 35.8 223.494 34.9C222.094 34.1 220.394 33.7 218.494 33.7C216.094 33.7 214.094 34.5 212.294 36.1C210.494 37.7 209.094 39.7 207.894 41.9C206.694 44.3 205.894 46.7 205.294 49.3C204.694 51.9 204.394 54.1 204.394 56.1C204.394 60.5 205.494 63.5 207.694 65.3C209.794 67.2 212.494 68.1 215.794 68.1C218.894 68.1 221.694 67.4 224.094 65.8C226.394 64.3 228.094 62.6 229.294 60.6C229.894 59.5 230.494 58.8 231.094 58.5C231.694 58.2 232.194 58 232.694 58C232.994 58 233.494 58.1 234.094 58.3C234.694 58.5 235.194 58.9 235.694 59.4C236.594 60.4 237.094 61.4 237.094 62.3ZM288.494 50.7C288.494 54.1 287.894 57.2 286.794 60.1C285.594 63.1 284.094 65.8 282.094 68C280.094 70.3 277.694 72.1 274.894 73.3C272.094 74.6 268.994 75.3 265.694 75.3C262.694 75.3 259.994 74.7 257.494 73.7C254.994 72.7 252.794 71.1 250.994 69.1C249.094 67.2 247.694 64.9 246.694 62.1C245.594 59.3 245.094 56.3 245.094 52.9C245.094 49.5 245.594 46.3 246.694 43.2C247.694 40.2 249.094 37.5 250.894 35.1C252.694 32.8 254.894 30.9 257.394 29.5C259.794 28.2 262.494 27.5 265.394 27.5C268.994 27.5 272.194 28.1 275.094 29.1C277.894 30.3 280.294 31.8 282.294 33.8C284.294 35.8 285.794 38.3 286.894 41.1C287.894 44 288.494 47.2 288.494 50.7ZM281.494 49.4C281.494 46.8 281.094 44.5 280.294 42.5C279.494 40.7 278.394 39.1 277.094 37.8C275.794 36.6 274.294 35.6 272.694 35C270.894 34.4 269.194 34.1 267.494 34.1C265.494 34.1 263.694 34.6 261.994 35.6C260.194 36.6 258.694 38 257.494 39.7C256.094 41.5 255.094 43.6 254.294 45.9C253.494 48.2 253.094 50.6 253.094 53.2C253.094 55.4 253.294 57.5 253.894 59.3C254.394 61.3 255.194 62.9 256.294 64.3C257.294 65.7 258.694 66.8 260.294 67.5C261.894 68.3 263.794 68.7 265.994 68.7C267.994 68.7 269.994 68.3 271.894 67.3C273.794 66.4 275.494 65.1 276.894 63.3C278.294 61.7 279.394 59.7 280.294 57.3C281.094 54.9 281.494 52.3 281.494 49.4ZM339.561 8.1V8.9C339.561 9.2 339.461 9.49999 339.461 9.8L339.261 10.6C339.261 10.9 339.161 11.2 339.161 11.4L338.761 13.6C338.561 14.4 338.461 15.1 338.461 15.8L337.861 22.9C337.661 25.3 337.561 27.7 337.561 30.1C337.561 35.5 337.461 40.8 337.261 46C336.961 51.3 336.861 56.6 336.861 61.9C336.861 63.2 336.861 64.5 336.961 65.7C336.961 67 337.061 68.3 337.261 69.5L337.461 70.4C337.461 70.7 337.461 71 337.661 71.3C337.661 71.5 337.761 71.6 337.761 71.7C337.761 71.9 337.761 72 337.861 72.1C337.861 72.3 337.961 72.6 337.961 72.9C337.961 73.5 337.461 74.1 336.461 74.5C335.461 74.9 334.561 75.2 333.661 75.2C332.461 75.2 331.561 74.9 330.861 74.5C330.161 74.1 329.661 73.5 329.361 72.8C328.961 72.1 328.761 71.2 328.661 70.1C328.461 69.1 328.361 67.9 328.361 66.7C326.961 68.9 325.061 70.6 322.761 71.8C320.361 73 318.161 73.6 316.061 73.6C312.761 73.6 309.861 73.1 307.461 72.3C304.961 71.4 302.861 70.1 301.261 68.4C299.661 66.8 298.461 64.8 297.661 62.5C296.861 60.3 296.461 57.9 296.461 55.1C296.461 52.7 296.761 49.8 297.461 46.6C298.161 43.4 299.261 40.4 300.861 37.5C302.461 34.7 304.461 32.4 306.861 30.4C309.261 28.5 312.261 27.5 315.761 27.5C318.261 27.5 320.561 27.9 322.761 28.5C324.861 29.3 326.861 30.6 328.861 32.5V23.5C328.861 21.1 328.961 19.6 329.061 19C329.061 16 329.261 13.2 329.461 10.6C329.661 8.1 329.961 6.5 330.361 5.9C330.861 5 331.761 4.49999 333.061 4.49999C333.861 4.49999 334.661 4.7 335.461 4.89999C336.161 5.3 336.861 5.6 337.461 6C338.061 6.4 338.661 6.79999 339.061 7.19999C339.361 7.6 339.561 7.9 339.561 8.1ZM328.561 47.4C328.561 46.2 328.361 44.8 328.061 43.3C327.761 41.8 327.261 40.4 326.561 39.1C325.761 37.9 324.761 36.8 323.461 35.9C322.061 35.1 320.261 34.6 318.261 34.6C315.761 34.6 313.661 35.4 312.061 36.9C310.261 38.5 308.861 40.4 307.861 42.6C306.861 44.8 306.061 47.1 305.661 49.5C305.161 51.9 304.961 54 304.961 55.6C304.961 57 305.061 58.4 305.461 59.8C305.661 61.3 306.261 62.7 307.061 63.9C307.761 65.2 308.761 66.2 310.161 67C311.461 67.8 313.161 68.2 315.261 68.2C317.961 68.2 320.161 67.5 321.961 66C323.661 64.6 325.061 62.8 326.061 60.6C326.961 58.5 327.661 56.2 328.061 53.8C328.361 51.4 328.561 49.3 328.561 47.4ZM390.409 65C390.409 66.4 389.709 67.6 388.409 68.6C387.009 69.7 385.209 70.6 383.209 71.4C381.209 72.2 379.009 72.9 376.609 73.3C374.109 73.7 371.809 73.9 369.609 73.9C365.909 73.9 362.809 73.3 360.209 72.3C357.509 71.2 355.309 69.7 353.609 67.9C351.909 66.1 350.609 64.1 349.809 61.7C349.009 59.4 348.609 57 348.609 54.6C348.609 51.4 349.109 48.1 350.209 44.9C351.309 41.7 352.809 38.8 354.609 36.2C356.309 33.7 358.309 31.6 360.509 30C362.709 28.4 364.909 27.6 367.209 27.6C369.509 27.6 372.009 27.9 374.709 28.4C377.309 29 379.709 29.8 381.709 30.8C384.209 32.2 386.309 33.8 388.009 35.7C389.609 37.7 390.409 40.1 390.409 42.7C390.409 44.6 389.809 46.4 388.609 48C387.409 49.7 385.909 51.2 384.009 52.4C382.009 53.7 379.809 54.7 377.209 55.5C374.609 56.3 371.909 56.6 369.109 56.6C367.109 56.6 365.009 56.3 362.809 55.7C360.609 55.1 358.709 54.4 357.109 53.4C357.109 55.5 357.309 57.5 357.909 59.5C358.409 61.5 359.309 63.1 360.609 64.4C361.809 65.8 363.409 66.8 365.209 67.5C366.909 68.3 368.909 68.7 371.109 68.7C372.309 68.7 373.609 68.6 374.909 68.2C376.109 67.9 377.409 67.5 378.609 66.9C379.809 66.4 380.909 65.8 382.009 65.2C383.009 64.6 383.909 64 384.809 63.4C385.609 62.9 386.509 62.6 387.509 62.6C388.309 62.6 389.009 62.9 389.609 63.5C390.109 64.1 390.409 64.6 390.409 65ZM383.209 43C383.209 41.5 382.809 40.1 382.009 38.9C381.209 37.8 380.209 36.9 379.009 36.1C377.809 35.4 376.309 34.8 374.609 34.4C372.909 34 371.409 33.8 370.109 33.8C368.709 33.8 367.409 34.2 366.209 34.8C364.909 35.5 363.809 36.4 362.809 37.5C361.709 38.6 360.809 39.9 360.009 41.3C359.209 42.8 358.609 44.3 358.209 45.9C358.809 47.6 360.009 48.9 362.009 49.7C363.909 50.7 366.309 51.1 369.109 51.1C370.709 51.1 372.309 50.9 374.009 50.5C375.609 50.1 377.209 49.6 378.609 48.9C379.909 48.2 381.009 47.3 381.909 46.3C382.709 45.3 383.209 44.2 383.209 43Z" fill="white"/>
</svg>
