<svg width="52" height="50" viewBox="0 0 52 50" fill="none" xmlns="http://www.w3.org/2000/svg">
  <path d="M25.5283 0C11.4317 0 1.47332e-05 11.4764 1.47332e-05 25.6336C-0.0057446 31.0065 1.67716 36.2454 4.81089 40.6098C7.94461 44.9743 12.3707 48.2435 17.4636 49.9555C18.7401 50.1917 19.2061 49.4002 19.2061 48.7205C19.2061 48.1109 19.1837 46.4992 19.171 44.361C12.07 45.9088 10.57 40.9238 10.57 40.9238C9.41156 37.9621 7.73605 37.1738 7.73605 37.1738C5.41588 35.5845 7.90839 35.6164 7.90839 35.6164C10.4711 35.7983 11.8179 38.2589 11.8179 38.2589C14.0966 42.1748 17.7955 41.0451 19.2508 40.3876C19.4805 38.7313 20.1412 37.6015 20.872 36.96C15.204 36.3122 9.24241 34.1133 9.24241 24.2932C9.24241 21.4943 10.2381 19.2061 11.8722 17.4125C11.6073 16.7646 10.7328 14.1572 12.1211 10.6307C12.1211 10.6307 14.2657 9.94132 19.1422 13.2572C21.2254 12.6879 23.3751 12.3981 25.5347 12.3955C27.6944 12.3998 29.844 12.6907 31.9271 13.2604C36.8005 9.94451 38.9419 10.6339 38.9419 10.6339C40.3334 14.1636 39.4589 16.7678 39.1972 17.4157C40.8344 19.2092 41.8206 21.4975 41.8206 24.2964C41.8206 34.142 35.8526 36.309 30.1655 36.9441C31.0814 37.7355 31.8984 39.2993 31.8984 41.6897C31.8984 45.1173 31.8665 47.8811 31.8665 48.7205C31.8665 49.4066 32.3261 50.2045 33.6218 49.9524C38.7097 48.2363 43.1303 44.9658 46.2597 40.6024C49.389 36.239 51.0692 31.0031 51.063 25.6336C51.063 11.4764 39.6313 0 25.5283 0Z" fill="#681EC7"/>
</svg>
