<svg width="51" height="50" viewBox="0 0 51 50" fill="none" xmlns="http://www.w3.org/2000/svg">
  <path d="M9.8404 44.6428C9.63485 44.6411 9.43617 44.5686 9.2779 44.4374C5.25782 41.1858 2.34484 36.7676 0.940195 31.7916C-0.46445 26.8155 -0.291655 21.5263 1.43478 16.6525C3.16122 11.7788 6.35635 7.56018 10.5801 4.57785C14.8038 1.59552 19.8484 -0.0038223 25.0189 0.000108721C28.8423 -0.0112191 32.6164 0.862787 36.0456 2.55367C36.2575 2.65913 36.4188 2.84439 36.4942 3.06873C36.5695 3.29307 36.5527 3.53814 36.4474 3.75009C36.396 3.85577 36.3242 3.95025 36.2362 4.02812C36.1482 4.10598 36.0457 4.16571 35.9345 4.20387C35.8233 4.24203 35.7057 4.25786 35.5885 4.25047C35.4712 4.24308 35.3565 4.21261 35.251 4.16081C30.0498 1.6067 24.0815 1.09008 18.5188 2.71246C12.9561 4.33484 8.20128 7.97892 5.18863 12.9286C2.26644 17.731 1.18618 23.4307 2.14841 28.9693C3.11065 34.5079 6.05002 39.5092 10.4208 43.0446C10.5118 43.1189 10.5873 43.2105 10.6429 43.314C10.6985 43.4176 10.7331 43.5311 10.7447 43.6481C10.7563 43.765 10.7447 43.8832 10.7106 43.9956C10.6764 44.1081 10.6204 44.2127 10.5458 44.3035C10.4617 44.4099 10.3545 44.4958 10.2322 44.5546C10.11 44.6133 9.97602 44.6435 9.8404 44.6428ZM25.0189 49.9999C21.0297 50.0107 17.0968 49.0581 13.5547 47.2231C13.3439 47.1142 13.1851 46.926 13.1131 46.7C13.0411 46.4739 13.0618 46.2285 13.1707 46.0178C13.2797 45.807 13.4679 45.6482 13.6939 45.5762C13.92 45.5042 14.1653 45.5249 14.3761 45.6339C18.8755 47.9563 24.0108 48.744 28.9994 47.8768C33.988 47.0097 38.5563 44.5353 42.0081 40.8307C45.4598 37.1261 47.6057 32.3946 48.1186 27.3572C48.6315 22.3198 47.4834 17.2529 44.8492 12.9286C43.462 10.6592 41.6987 8.6423 39.6349 6.96437C39.4523 6.81576 39.3358 6.60104 39.3107 6.36693C39.2856 6.13283 39.354 5.89829 39.501 5.71437C39.5747 5.62265 39.6658 5.5464 39.769 5.48999C39.8722 5.43359 39.9856 5.39814 40.1026 5.3857C40.2196 5.37325 40.3379 5.38405 40.4507 5.41747C40.5635 5.45089 40.6686 5.50628 40.7599 5.58044C42.9801 7.38623 44.8763 9.55718 46.367 12.0001C48.6744 15.7902 49.9314 20.1261 50.009 24.5626C50.0867 28.9991 48.9821 33.3763 46.8088 37.2448C44.6355 41.1133 41.4718 44.3337 37.6424 46.5753C33.813 48.8169 29.4561 49.9989 25.0189 49.9999Z" fill="white"/>
  <path d="M24.1261 49.1071C23.9048 49.1065 23.6916 49.0237 23.5279 48.8749C20.1745 45.8678 17.6191 42.0761 16.0904 37.8392C14.3948 33.767 13.486 29.4105 13.4119 25C13.4217 20.5797 14.3331 16.2078 16.0904 12.1518C17.7666 7.99415 20.3009 4.23678 23.5279 1.1251C23.7054 0.982552 23.9307 0.913194 24.1576 0.931206C24.3845 0.949218 24.596 1.05324 24.7488 1.222C24.9016 1.39076 24.9842 1.61151 24.9796 1.83912C24.9751 2.06673 24.8837 2.28401 24.7243 2.44652C21.675 5.38155 19.2778 8.92565 17.6886 12.8483C16.0436 16.6882 15.1961 20.8225 15.1976 25C15.2549 29.1751 16.1032 33.3015 17.6976 37.1607C19.1408 41.1545 21.5557 44.7262 24.7243 47.5535C24.8575 47.6746 24.951 47.8331 24.9926 48.0083C25.0341 48.1834 25.0217 48.367 24.957 48.535C24.8923 48.703 24.7784 48.8475 24.6301 48.9496C24.4818 49.0517 24.3061 49.1066 24.1261 49.1071Z" fill="white"/>
  <path d="M25.9117 49.1071C25.7317 49.1066 25.5561 49.0517 25.4078 48.9497C25.2595 48.8476 25.1455 48.7031 25.0809 48.5351C25.0162 48.3671 25.0038 48.1835 25.0453 48.0083C25.0868 47.8331 25.1803 47.6746 25.3135 47.5535C28.4821 44.7262 30.897 41.1545 32.3403 37.1607C33.9347 33.3016 34.783 29.1752 34.8403 25C34.8418 20.8225 33.9943 16.6883 32.3492 12.8483C30.76 8.92569 28.3628 5.38159 25.3135 2.44656C25.2186 2.37036 25.1403 2.27556 25.0834 2.168C25.0265 2.06043 24.9922 1.94236 24.9825 1.82104C24.9729 1.69972 24.9882 1.57771 25.0274 1.46251C25.0667 1.34731 25.129 1.24135 25.2107 1.15114C25.2924 1.06092 25.3917 0.988355 25.5024 0.937898C25.6132 0.887441 25.7331 0.860157 25.8547 0.857723C25.9764 0.855288 26.0973 0.877753 26.21 0.92374C26.3226 0.969726 26.4247 1.03826 26.51 1.12514C29.753 4.23252 32.3028 7.9902 33.9921 12.1519C35.7341 16.2111 36.6303 20.5828 36.626 25C36.5519 29.4105 35.643 33.7671 33.9474 37.8393C32.4086 42.0799 29.8407 45.8719 26.4742 48.8749C26.3197 49.0158 26.1206 49.098 25.9117 49.1071Z" fill="white"/>
  <path d="M49.126 25.8929H0.911897C0.675097 25.8929 0.447996 25.7988 0.280554 25.6314C0.113111 25.4639 0.019043 25.2368 0.019043 25C0.019043 24.7632 0.113111 24.5361 0.280554 24.3687C0.447996 24.2013 0.675097 24.1072 0.911897 24.1072H49.126C49.3628 24.1072 49.5899 24.2013 49.7573 24.3687C49.9248 24.5361 50.0188 24.7632 50.0188 25C50.0188 25.2368 49.9248 25.4639 49.7573 25.6314C49.5899 25.7988 49.3628 25.8929 49.126 25.8929ZM45.5546 13.3929H4.48331C4.24651 13.3929 4.01941 13.2989 3.85197 13.1314C3.68453 12.964 3.59046 12.7369 3.59046 12.5001C3.59046 12.2633 3.68453 12.0362 3.85197 11.8687C4.01941 11.7013 4.24651 11.6072 4.48331 11.6072H45.5546C45.7914 11.6072 46.0185 11.7013 46.1859 11.8687C46.3534 12.0362 46.4474 12.2633 46.4474 12.5001C46.4474 12.7369 46.3534 12.964 46.1859 13.1314C46.0185 13.2989 45.7914 13.3929 45.5546 13.3929ZM45.5546 38.3928H4.48331C4.24651 38.3928 4.01941 38.2988 3.85197 38.1313C3.68453 37.9639 3.59046 37.7368 3.59046 37.5C3.59046 37.2632 3.68453 37.0361 3.85197 36.8686C4.01941 36.7012 4.24651 36.6071 4.48331 36.6071H45.5546C45.7914 36.6071 46.0185 36.7012 46.1859 36.8686C46.3534 37.0361 46.4474 37.2632 46.4474 37.5C46.4474 37.7368 46.3534 37.9639 46.1859 38.1313C46.0185 38.2988 45.7914 38.3928 45.5546 38.3928Z" fill="white"/>
  <path d="M25.019 49.1071C24.7822 49.1071 24.5551 49.013 24.3876 48.8456C24.2202 48.6781 24.1261 48.451 24.1261 48.2142V1.78586C24.1261 1.54906 24.2202 1.32196 24.3876 1.15452C24.5551 0.987074 24.7822 0.893005 25.019 0.893005C25.2558 0.893005 25.4829 0.987074 25.6503 1.15452C25.8177 1.32196 25.9118 1.54906 25.9118 1.78586V48.2142C25.9118 48.451 25.8177 48.6781 25.6503 48.8456C25.4829 49.013 25.2558 49.1071 25.019 49.1071Z" fill="white"/>
</svg>
