<svg width="50" height="50" viewBox="0 0 50 50" fill="none" xmlns="http://www.w3.org/2000/svg">
  <path d="M37.9344 37.7875V28.1984C37.9344 23.0609 35.1922 20.6703 31.5344 20.6703C28.5828 20.6703 27.2609 22.2938 26.525 23.4328V21.0625H20.9656C21.0391 22.6328 20.9656 37.7875 20.9656 37.7875H26.525V28.4469C26.525 27.9484 26.5609 27.4484 26.7078 27.0922C27.1094 26.0938 28.0234 25.0594 29.5594 25.0594C31.5719 25.0594 32.3766 26.5922 32.3766 28.8406V37.7891L37.9344 37.7875ZM15.1078 18.7797C17.0453 18.7797 18.2531 17.4937 18.2531 15.8891C18.2172 14.2484 17.0453 13 15.1438 13C13.2422 13 12 14.2484 12 15.8891C12 17.4953 13.2062 18.7797 15.0734 18.7797H15.1078ZM17.8875 37.7875V21.0625H12.3297V37.7875H17.8875Z" fill="white"/>
  <rect x="1.5" y="1.5" width="47" height="47" rx="4.5" stroke="white" stroke-width="3"/>
</svg>
